<svg width="96" height="32" viewBox="0 0 96 32" fill="none" xmlns="http://www.w3.org/2000/svg">
<g clip-path="url(#clip0_1591_4567)">
<mask id="mask0_1591_4567" style="mask-type:luminance" maskUnits="userSpaceOnUse" x="0" y="0" width="96" height="32">
<path d="M0 0H96V32H0V0Z" fill="white"/>
</mask>
<g mask="url(#mask0_1591_4567)">
<path fill-rule="evenodd" clip-rule="evenodd" d="M60.7179 7.05068C60.7153 6.79999 60.7629 6.55132 60.8579 6.31931C60.9529 6.08729 61.0933 5.87662 61.2709 5.6997C61.4485 5.52278 61.6598 5.38318 61.8922 5.28912C62.1245 5.19506 62.3734 5.14844 62.6241 5.15201H63.9659V2.36055C63.9236 2.06676 63.9451 1.76731 64.029 1.48258C64.1128 1.19784 64.257 0.934517 64.4517 0.71052C64.6465 0.486523 64.8872 0.307115 65.1575 0.184509C65.4278 0.0619024 65.7214 -0.00102417 66.0182 1.26061e-05C66.465 0.000512887 66.8997 0.14517 67.2577 0.412483C67.6158 0.679797 67.878 1.0555 68.0054 1.48375C68.0907 1.76748 68.1121 2.06721 68.0694 2.36055V5.15201H72.4321C72.8095 5.14781 73.1796 5.25684 73.4944 5.46505C73.8093 5.67325 74.0545 5.97105 74.1985 6.32001C74.3168 6.60954 74.362 6.92374 74.3302 7.23489C74.2984 7.54604 74.1906 7.84458 74.0161 8.10419C73.8417 8.36379 73.606 8.57648 73.33 8.7235C73.0539 8.87052 72.7459 8.94735 72.4331 8.94721H68.0705V15.6704C68.0705 18.9483 69.8987 20.624 72.4331 20.624C72.9418 20.6249 73.4295 20.8271 73.7895 21.1865C74.1495 21.5459 74.3525 22.0332 74.3542 22.5419C74.3545 22.7942 74.3049 23.0441 74.2084 23.2773C74.1119 23.5104 73.9702 23.7222 73.7916 23.9005C73.6131 24.0788 73.401 24.2201 73.1677 24.3162C72.9344 24.4124 72.6844 24.4615 72.4321 24.4608C67.6193 24.4608 63.9659 21.0731 63.9659 15.6704V8.94828H62.6241C62.1204 8.94633 61.6378 8.7459 61.281 8.39047C60.9242 8.03503 60.7219 7.55431 60.7179 7.05068ZM43.9243 29.4997V22.1984C45.6319 23.6993 47.8312 24.5207 50.1046 24.5067C55.4667 24.5067 59.5265 20.1493 59.5265 14.6336C59.5265 9.11895 55.4667 4.76161 50.1046 4.76161C47.8237 4.74095 45.6181 5.57727 43.9243 7.10508V6.84801C43.8717 6.48016 43.7209 6.13327 43.4879 5.84378C43.255 5.55429 42.9483 5.33288 42.6002 5.20281C42.2521 5.07274 41.8754 5.0388 41.5097 5.10456C41.1439 5.17032 40.8026 5.33336 40.5217 5.57655C40.145 5.90302 39.8988 6.35451 39.8283 6.84801V29.5008C39.8809 29.8689 40.0316 30.216 40.2646 30.5056C40.4977 30.7953 40.8045 31.0168 41.1528 31.1469C41.5011 31.277 41.8779 31.3109 42.2438 31.245C42.6097 31.179 42.9511 31.0158 43.2321 30.7723C43.6088 30.4458 43.855 29.9943 43.9254 29.5008L43.9243 29.4997ZM49.6598 8.55895C52.8598 8.55895 55.3953 11.1669 55.3953 14.6336C55.3953 18.1003 52.8609 20.7083 49.6598 20.7083C46.4587 20.7083 43.9243 18.1003 43.9243 14.6336V14.3701C44.0385 11.0581 46.4587 8.55895 49.6598 8.55895ZM18.5089 14.6027C18.5236 12.7245 19.0703 10.889 20.0854 9.30881C21.0994 7.73021 22.5409 6.47214 24.2422 5.68108C25.9422 4.89077 27.832 4.60078 29.6907 4.84502C31.5494 5.08926 33.3001 5.85763 34.7382 7.06028C34.9612 7.25372 35.1421 7.49091 35.2696 7.75716C35.3971 8.0234 35.4686 8.31301 35.4795 8.60801C35.4823 9.16392 35.268 9.69896 34.8822 10.0992L29.1809 16.9045C29.0153 17.1195 28.8013 17.2923 28.5562 17.4087C28.3111 17.5252 28.042 17.5819 27.7707 17.5744C27.3933 17.5948 27.0189 17.4975 26.6993 17.2959C26.3796 17.0943 26.1304 16.7984 25.9862 16.4491C25.8904 16.2172 25.8432 15.9682 25.8475 15.7173C25.8352 15.4936 25.868 15.2696 25.9438 15.0587C26.0197 14.8478 26.1371 14.6543 26.2891 14.4896L30.7766 9.21708C30.042 8.76553 29.1939 8.53279 28.3318 8.54615C25.1467 8.54615 22.6251 11.2235 22.6251 14.6027C22.6251 17.9819 25.1105 20.6592 28.3318 20.6592C29.0667 20.6668 29.7952 20.5217 30.4711 20.2331C31.147 19.9445 31.7555 19.5186 32.2582 18.9824L32.4854 18.7947C32.9654 18.3925 33.3643 18.0587 34.0385 18.0587C34.3011 18.0471 34.5633 18.0899 34.8087 18.1842C35.054 18.2785 35.2773 18.4225 35.4646 18.6069C35.6526 18.7914 35.8007 19.0125 35.8998 19.2565C35.9989 19.5005 36.0468 19.7623 36.0406 20.0256C36.0025 20.5266 35.7913 20.9987 35.4433 21.3611C34.5542 22.363 33.4573 23.1589 32.2291 23.6935C31.0009 24.2281 29.6709 24.4885 28.3318 24.4565C27.0351 24.4769 25.7475 24.2358 24.546 23.7476C23.3445 23.2594 22.2537 22.5341 21.3387 21.6149C20.4217 20.6951 19.6986 19.6004 19.2125 18.3958C18.7264 17.1913 18.4872 15.9014 18.5089 14.6027ZM10.5633 8.89495H2.33287C1.83011 8.89179 1.34897 8.69013 0.994201 8.33388C0.638107 7.97631 0.437382 7.49275 0.435584 6.98812C0.433787 6.48349 0.631062 5.9985 0.984601 5.63841C1.16126 5.4613 1.37153 5.32128 1.60307 5.22658C1.8346 5.13188 2.08273 5.0844 2.33287 5.08695H14.6603C15.0376 5.08233 15.4075 5.19178 15.7216 5.40095C16.0356 5.61013 16.2792 5.90927 16.4203 6.25921C16.5153 6.49068 16.5622 6.73921 16.559 6.99095C16.5403 7.49848 16.3276 7.9795 15.9649 8.33495L5.94353 20.3264H14.6603C15.0378 20.3219 15.4078 20.4315 15.7218 20.6409C16.0359 20.8502 16.2794 21.1496 16.4203 21.4997C16.5617 21.8486 16.5973 22.2314 16.5226 22.6004C16.4478 22.9693 16.2661 23.3081 16.0001 23.5744C15.6449 23.9305 15.1633 24.1318 14.6603 24.1344H1.89873C1.64702 24.1317 1.3983 24.0794 1.16678 23.9806C0.935258 23.8818 0.725473 23.7383 0.549401 23.5584C0.193134 23.1947 -0.00419889 22.704 6.77755e-05 22.1941C0.0128678 21.6907 0.213401 21.2107 0.559001 20.8459L10.5643 8.89388L10.5633 8.89495ZM77.9638 9.13921C76.8816 10.7589 76.304 12.6632 76.3041 14.6112C76.2808 15.9108 76.5196 17.2018 77.0062 18.407C77.4929 19.6123 78.2174 20.7072 79.1365 21.6263C80.0556 22.5454 81.1504 23.2699 82.3557 23.7565C83.561 24.2431 84.8519 24.482 86.1515 24.4587C87.8531 24.4589 89.5257 24.0183 91.0063 23.1798C92.4869 22.3413 93.725 21.1335 94.5999 19.6741C95.4748 18.2147 95.9566 16.5535 95.9985 14.8525C96.0404 13.1514 95.6408 11.4685 94.8388 9.96788C94.0367 8.46722 92.8595 7.19995 91.422 6.28962C89.9844 5.37928 88.3355 4.85692 86.636 4.77347C84.9365 4.69001 83.2444 5.0483 81.7245 5.81341C80.2047 6.57852 78.909 7.72435 77.9638 9.13921ZM86.1515 8.55041C89.4187 8.55041 91.8763 11.2661 91.8763 14.6101C91.8763 17.9189 89.4241 20.6699 86.1515 20.6699C82.879 20.6699 80.4278 17.9552 80.4278 14.6112C80.4278 11.2661 82.8843 8.55041 86.1515 8.55041Z" fill="#002920"/>
</g>
</g>
<defs>
<clipPath id="clip0_1591_4567">
<rect width="96" height="32" fill="white"/>
</clipPath>
</defs>
</svg>
