<svg width="441" height="442" viewBox="0 0 441 442" fill="none" xmlns="http://www.w3.org/2000/svg" xmlns:xlink="http://www.w3.org/1999/xlink">
<use xlink:href="#stroke0_1591_5033" transform="translate(324.374 427.66) scale(0.154704) rotate(148.317)"/>
<use xlink:href="#stroke0_1591_5033" transform="translate(312.386 421.03) scale(0.154704) rotate(140.46)"/>
<use xlink:href="#stroke0_1591_5033" transform="translate(286.574 443.122) scale(0.154704) rotate(-177.951)"/>
<use xlink:href="#stroke0_1591_5033" transform="translate(281.974 430.618) scale(0.154704) rotate(162.34)"/>
<use xlink:href="#stroke0_1591_5033" transform="translate(274.074 410.116) scale(0.154704) rotate(134.615)"/>
<use xlink:href="#stroke0_1591_5033" transform="translate(256.367 424.812) scale(0.154704) rotate(162.849)"/>
<use xlink:href="#stroke0_1591_5033" transform="translate(236.941 429.771) scale(0.154704) rotate(179.648)"/>
<use xlink:href="#stroke0_1591_5033" transform="translate(223.489 426.396) scale(0.154704) rotate(-178.051)"/>
<use xlink:href="#stroke0_1591_5033" transform="translate(215.724 416.959) scale(0.154704) rotate(172.696)"/>
<use xlink:href="#stroke0_1591_5033" transform="translate(205.526 409.25) scale(0.154704) rotate(168.781)"/>
<use xlink:href="#stroke0_1591_5033" transform="translate(179.06 415.361) scale(0.154704) rotate(-161.803)"/>
<use xlink:href="#stroke0_1591_5033" transform="translate(177.586 402.056) scale(0.154704) rotate(-179.087)"/>
<use xlink:href="#stroke0_1591_5033" transform="translate(170.003 391.347) scale(0.154704) rotate(174.412)"/>
<use xlink:href="#stroke0_1591_5033" transform="translate(142.89 394.218) scale(0.154704) rotate(-154.854)"/>
<use xlink:href="#stroke0_1591_5033" transform="translate(124.572 387.046) scale(0.154704) rotate(-141.498)"/>
<use xlink:href="#stroke0_1591_5033" transform="translate(138.676 367.372) scale(0.154704) rotate(-179.913)"/>
<use xlink:href="#stroke0_1591_5033" transform="translate(106.021 367.539) scale(0.154704) rotate(-139.643)"/>
<use xlink:href="#stroke0_1591_5033" transform="translate(118.301 350.215) scale(0.154704) rotate(-171.552)"/>
<use xlink:href="#stroke0_1591_5033" transform="translate(104.179 343.041) scale(0.154704) rotate(-159.431)"/>
<use xlink:href="#stroke0_1591_5033" transform="translate(94.5553 332.787) scale(0.154704) rotate(-154.218)"/>
<use xlink:href="#stroke0_1591_5033" transform="translate(69.0232 321.789) scale(0.154704) rotate(-124.186)"/>
<use xlink:href="#stroke0_1591_5033" transform="translate(67.0374 310.285) scale(0.154704) rotate(-128.85)"/>
<use xlink:href="#stroke0_1591_5033" transform="translate(69.9886 298.31) scale(0.154704) rotate(-139.93)"/>
<use xlink:href="#stroke0_1591_5033" transform="translate(63.6952 285.864) scale(0.154704) rotate(-136.291)"/>
<use xlink:href="#stroke0_1591_5033" transform="translate(45.3785 269.97) scale(0.154704) rotate(-113.184)"/>
<use xlink:href="#stroke0_1591_5033" transform="translate(55.733 260.379) scale(0.154704) rotate(-133.521)"/>
<use xlink:href="#stroke0_1591_5033" transform="translate(70.0968 244.773) scale(0.154704) rotate(-159.005)"/>
<use xlink:href="#stroke0_1591_5033" transform="translate(62.2637 233.699) scale(0.154704) rotate(-149.654)"/>
<use xlink:href="#stroke0_1591_5033" transform="translate(48.2189 221.41) scale(0.154704) rotate(-130.713)"/>
<use xlink:href="#stroke0_1591_5033" transform="translate(56.2461 208.263) scale(0.154704) rotate(-144.341)"/>
<use xlink:href="#stroke0_1591_5033" transform="translate(58.0112 194.764) scale(0.154704) rotate(-148.082)"/>
<use xlink:href="#stroke0_1591_5033" transform="translate(27.1434 174.692) scale(0.154704) rotate(-99.8764)"/>
<use xlink:href="#stroke0_1591_5033" transform="translate(28.3707 162.562) scale(0.154704) rotate(-102.238)"/>
<use xlink:href="#stroke0_1591_5033" transform="translate(34.631 159.393) scale(0.154704) rotate(-112.849)"/>
<g opacity="0.48">
<use xlink:href="#stroke1_1591_5033" transform="translate(437.972 452.085) scale(0.154704) rotate(148.317)"/>
<use xlink:href="#stroke1_1591_5033" transform="translate(425.974 445.121) scale(0.154704) rotate(139.865)"/>
<use xlink:href="#stroke1_1591_5033" transform="translate(400.761 467.256) scale(0.154704) rotate(-179.227)"/>
<use xlink:href="#stroke1_1591_5033" transform="translate(396.107 454.489) scale(0.154704) rotate(160.299)"/>
<use xlink:href="#stroke1_1591_5033" transform="translate(387.441 433.8) scale(0.154704) rotate(131.718)"/>
<use xlink:href="#stroke1_1591_5033" transform="translate(370.822 448.91) scale(0.154704) rotate(158.985)"/>
<use xlink:href="#stroke1_1591_5033" transform="translate(352.172 454.745) scale(0.154704) rotate(174.721)"/>
<use xlink:href="#stroke1_1591_5033" transform="translate(338.991 452.092) scale(0.154704) rotate(175.84)"/>
<use xlink:href="#stroke1_1591_5033" transform="translate(330.73 442.955) scale(0.154704) rotate(165.29)"/>
<use xlink:href="#stroke1_1591_5033" transform="translate(319.961 435.934) scale(0.154704) rotate(159.98)"/>
<use xlink:href="#stroke1_1591_5033" transform="translate(295.512 445.617) scale(0.154704) rotate(-172.099)"/>
<use xlink:href="#stroke1_1591_5033" transform="translate(292.277 432.122) scale(0.154704) rotate(169.041)"/>
<use xlink:href="#stroke1_1591_5033" transform="translate(283.063 422.409) scale(0.154704) rotate(160.925)"/>
<use xlink:href="#stroke1_1591_5033" transform="translate(258.213 431.111) scale(0.154704) rotate(-169.974)"/>
<use xlink:href="#stroke1_1591_5033" transform="translate(239.602 428.762) scale(0.154704) rotate(-158.229)"/>
<use xlink:href="#stroke1_1591_5033" transform="translate(247.849 405.115) scale(0.154704) rotate(161.824)"/>
<use xlink:href="#stroke1_1591_5033" transform="translate(217.677 415.289) scale(0.154704) rotate(-159.326)"/>
<use xlink:href="#stroke1_1591_5033" transform="translate(223.814 394.27) scale(0.154704) rotate(167.492)"/>
<use xlink:href="#stroke1_1591_5033" transform="translate(208.522 392.223) scale(0.154704) rotate(178.516)"/>
<use xlink:href="#stroke1_1591_5033" transform="translate(196.138 386.025) scale(0.154704) rotate(-177.166)"/>
<use xlink:href="#stroke1_1591_5033" transform="translate(168.743 385.834) scale(0.154704) rotate(-147.827)"/>
<use xlink:href="#stroke1_1591_5033" transform="translate(162.588 376.05) scale(0.154704) rotate(-152.98)"/>
<use xlink:href="#stroke1_1591_5033" transform="translate(160.531 363.848) scale(0.154704) rotate(-164.353)"/>
<use xlink:href="#stroke1_1591_5033" transform="translate(149.716 355.1) scale(0.154704) rotate(-160.83)"/>
<use xlink:href="#stroke1_1591_5033" transform="translate(126.426 348.249) scale(0.154704) rotate(-137.679)"/>
<use xlink:href="#stroke1_1591_5033" transform="translate(131.764 335.249) scale(0.154704) rotate(-157.834)"/>
<use xlink:href="#stroke1_1591_5033" transform="translate(138.309 315.226) scale(0.154704) rotate(176.979)"/>
<use xlink:href="#stroke1_1591_5033" transform="translate(126.484 308.442) scale(0.154704) rotate(-173.285)"/>
<use xlink:href="#stroke1_1591_5033" transform="translate(108.445 302.882) scale(0.154704) rotate(-153.886)"/>
<use xlink:href="#stroke1_1591_5033" transform="translate(110.398 287.773) scale(0.154704) rotate(-166.997)"/>
<use xlink:href="#stroke1_1591_5033" transform="translate(106.604 274.862) scale(0.154704) rotate(-170.194)"/>
<use xlink:href="#stroke1_1591_5033" transform="translate(70.1343 267.749) scale(0.154704) rotate(-121.41)"/>
<use xlink:href="#stroke1_1591_5033" transform="translate(66.4774 255.845) scale(0.154704) rotate(-123.174)"/>
<use xlink:href="#stroke1_1591_5033" transform="translate(68.3104 244.525) scale(0.154704) rotate(-132.593)"/>
<use xlink:href="#stroke1_1591_5033" transform="translate(55.0287 230.209) scale(0.154704) rotate(-118.388)"/>
<use xlink:href="#stroke1_1591_5033" transform="translate(77.8775 216.823) scale(0.154704) rotate(-158.841)"/>
<use xlink:href="#stroke1_1591_5033" transform="translate(69.7388 205.781) scale(0.154704) rotate(-151.163)"/>
<use xlink:href="#stroke1_1591_5033" transform="translate(36.4428 187.976) scale(0.154704) rotate(-103.79)"/>
<use xlink:href="#stroke1_1591_5033" transform="translate(65.4 179.84) scale(0.154704) rotate(-153.01)"/>
<use xlink:href="#stroke1_1591_5033" transform="translate(38.4118 165.828) scale(0.154704) rotate(-115.338)"/>
<use xlink:href="#stroke1_1591_5033" transform="translate(45.2252 155.181) scale(0.154704) rotate(-128.981)"/>
<use xlink:href="#stroke1_1591_5033" transform="translate(60.2485 140.865) scale(0.154704) rotate(-154.263)"/>
<use xlink:href="#stroke1_1591_5033" transform="translate(36.2342 127.937) scale(0.154704) rotate(-119.979)"/>
<use xlink:href="#stroke1_1591_5033" transform="translate(48.6144 116.469) scale(0.154704) rotate(-140.482)"/>
<use xlink:href="#stroke1_1591_5033" transform="translate(34.1788 101.878) scale(0.154704) rotate(-120.018)"/>
<use xlink:href="#stroke1_1591_5033" transform="translate(21.7691 82.8192) scale(0.154704) rotate(-100.281)"/>
<use xlink:href="#stroke1_1591_5033" transform="translate(25.4168 72.4856) scale(0.154704) rotate(-107.595)"/>
<use xlink:href="#stroke1_1591_5033" transform="translate(23.9914 58.6201) scale(0.154704) rotate(-105.544)"/>
<use xlink:href="#stroke1_1591_5033" transform="translate(36.0247 50.4196) scale(0.154704) rotate(-125.049)"/>
<use xlink:href="#stroke1_1591_5033" transform="translate(37.4349 38.4562) scale(0.154704) rotate(-126.978)"/>
</g>
<use xlink:href="#stroke2_1591_5033" transform="translate(287.028 412.433) scale(0.213006) rotate(111.765)"/>
<use xlink:href="#stroke2_1591_5033" transform="translate(244.563 376.96) scale(0.261775) rotate(54.8044)"/>
<use xlink:href="#stroke2_1591_5033" transform="translate(170.902 439.201) scale(0.261158) rotate(-65.9001)"/>
<use xlink:href="#stroke2_1591_5033" transform="translate(230.982 438.373) scale(0.168924) rotate(164.857)"/>
<use xlink:href="#stroke2_1591_5033" transform="translate(155.306 395.198) scale(0.229716) rotate(-13.2066)"/>
<use xlink:href="#stroke2_1591_5033" transform="translate(219.22 425.101) scale(0.228892) rotate(144.121)"/>
<use xlink:href="#stroke2_1591_5033" transform="translate(158.562 447.384) scale(0.180807) rotate(-127.972)"/>
<use xlink:href="#stroke2_1591_5033" transform="translate(147.684 443.495) scale(0.176344) rotate(-128.031)"/>
<use xlink:href="#stroke2_1591_5033" transform="translate(170.322 422.588) scale(0.168706) rotate(161.808)"/>
<use xlink:href="#stroke2_1591_5033" transform="translate(176.943 394.707) scale(0.252247) rotate(123.822)"/>
<use xlink:href="#stroke2_1591_5033" transform="translate(82.1158 413.24) scale(0.205596) rotate(-74.0615)"/>
<use xlink:href="#stroke2_1591_5033" transform="translate(137.668 410.55) scale(0.205794) rotate(167.018)"/>
<use xlink:href="#stroke2_1591_5033" transform="translate(131.137 367.287) scale(0.203795) rotate(112.389)"/>
<use xlink:href="#stroke2_1591_5033" transform="translate(55.898 391.156) scale(0.188122) rotate(-79.5297)"/>
<use xlink:href="#stroke2_1591_5033" transform="translate(49.3711 346.295) scale(0.177103) rotate(-16.5476)"/>
<use xlink:href="#stroke2_1591_5033" transform="translate(108.784 323.395) scale(0.25525) rotate(96.3164)"/>
<use xlink:href="#stroke2_1591_5033" transform="translate(25.4839 334.083) scale(0.199194) rotate(-38.8402)"/>
<use xlink:href="#stroke2_1591_5033" transform="translate(95.507 313.038) scale(0.217904) rotate(112.353)"/>
<use xlink:href="#stroke2_1591_5033" transform="translate(83.2581 336.817) scale(0.202018) rotate(167.884)"/>
<use xlink:href="#stroke2_1591_5033" transform="translate(69.6155 328.225) scale(0.173097) rotate(-177.97)"/>
<use xlink:href="#stroke2_1591_5033" transform="translate(11.7151 270.094) scale(0.209648) rotate(-14.1969)"/>
<use xlink:href="#stroke2_1591_5033" transform="translate(-8.2513 285.641) scale(0.267564) rotate(-57.3305)"/>
<use xlink:href="#stroke2_1591_5033" transform="translate(39.3627 303.225) scale(0.222286) rotate(-138.192)"/>
<use xlink:href="#stroke2_1591_5033" transform="translate(31.9559 285.413) scale(0.20099) rotate(-130.194)"/>
<use xlink:href="#stroke2_1591_5033" transform="translate(10.8169 213.677) scale(0.174124) rotate(-4.68144)"/>
<use xlink:href="#stroke2_1591_5033" transform="translate(35.0122 262.188) scale(0.203091) rotate(-138.927)"/>
<use xlink:href="#stroke2_1591_5033" transform="translate(41.0589 178.164) scale(0.181483) rotate(56.8254)"/>
<use xlink:href="#stroke2_1591_5033" transform="translate(75.801 171.376) scale(0.269681) rotate(102.518)"/>
<use xlink:href="#stroke2_1591_5033" transform="translate(42.1324 219.408) scale(0.207455) rotate(-153.494)"/>
<use xlink:href="#stroke2_1591_5033" transform="translate(67.9628 156.803) scale(0.206686) rotate(115.621)"/>
<use xlink:href="#stroke2_1591_5033" transform="translate(63.9695 115.92) scale(0.266174) rotate(84.7435)"/>
<use xlink:href="#stroke2_1591_5033" transform="translate(9.67748 111.249) scale(0.182675) rotate(6.11869)"/>
<use xlink:href="#stroke2_1591_5033" transform="translate(-5.7245 103.521) scale(0.224612) rotate(-15.4481)"/>
<use xlink:href="#stroke2_1591_5033" transform="translate(-4.20046 135.978) scale(0.225394) rotate(-82.403)"/>
<use xlink:href="#stroke2_1591_5033" transform="translate(2.09303 73.5895) scale(0.198843) rotate(-7.18097)"/>
<defs>
<g id="stroke0_1591_5033" data-figma-scatter-ref="stroke0_1591_5033_ref" data-figma-scatter="f0.25_w0_aj30_sj0_r-30_s4833387523621560465_sw56">
<path d="M144.904 352.362C147.954 349.312 149.763 349.672 150.203 353.416C150.707 357.707 148.541 361.981 145.862 361.981C141.689 361.981 141.109 356.157 144.904 352.362ZM233.557 300.848C235.222 299.793 235.148 299.79 239.626 301.034C246.137 302.842 242.834 311.43 236.149 310.074C232.526 309.339 230.657 302.687 233.557 300.848ZM115.043 291.648C115.876 290.814 121.675 290.775 123.794 291.588C127.87 293.152 123.8 300.981 118.911 300.981C115.434 300.981 112.584 294.106 115.043 291.648ZM175 267.844C177.951 264.584 182.797 265.664 183.185 269.669C183.542 273.361 180.116 276.366 176.184 275.808C173.174 275.381 172.468 270.643 175 267.844ZM300.599 259.538C303.26 257.674 305.545 257.551 307.176 259.181C310.959 262.964 304.966 270.3 300.126 267.811C297.566 266.494 297.854 261.461 300.599 259.538ZM65.0379 258.053C67.3289 254.782 73.1336 255.171 74.0077 258.652C74.8097 261.846 70.4911 266.288 67.0751 265.785C64.3022 265.377 63.1012 260.818 65.0379 258.053ZM1.62975 232.231C4.06261 229.617 7.57057 229.306 9.42565 231.541C12.2486 234.942 6.98636 241.476 2.39147 240.275C-0.416467 239.54 -0.856054 234.902 1.62975 232.231ZM227.315 227.042C231.346 223.011 237.247 225.557 235.37 230.516C234.195 233.619 231.794 235.16 228.686 234.803C225.023 234.383 224.265 230.092 227.315 227.042ZM178.376 211.732C181.51 210.534 185.325 212.743 185.361 215.776C185.383 217.706 180.74 221.981 178.621 221.981C173.248 221.981 173.051 213.767 178.376 211.732ZM137.582 210.262C140.566 207.086 142.799 207.702 143.195 211.81C143.572 215.732 141.11 219.981 138.46 219.981C134.822 219.981 134.264 213.794 137.582 210.262ZM104.68 201.937C111.231 197.943 114.57 200.054 112.52 206.893C111.161 211.43 108.789 213.748 104.661 214.574C98.8111 215.744 98.826 205.507 104.68 201.937ZM156.506 182.543C159.544 178.68 163.042 179.112 164.254 183.5C165.996 189.811 163.107 195.981 158.409 195.981C152.055 195.981 151.122 189.388 156.506 182.543ZM332.126 178.425C334.334 175.356 337.748 175.58 338.208 178.826C338.634 181.835 336.64 186.667 334.658 187.427C330.706 188.943 328.979 182.801 332.126 178.425ZM134.324 176.981C140.114 176.981 141.992 179.238 139.609 183.334C135.805 189.874 127.938 186.852 129.768 179.555C130.324 177.339 130.958 176.981 134.324 176.981ZM180.774 170.492C187.383 163.883 194.419 171.193 189.887 179.96C188.034 183.542 185.237 184.501 181.642 182.786C177.638 180.875 177.16 174.106 180.774 170.492ZM112.139 167.546C117.116 164.845 119.376 165.47 119.376 169.547C119.376 175.831 115.282 180.917 110.189 180.959C104.909 181.002 106.413 170.653 112.139 167.546ZM33.1649 171.731C33.7239 169.528 40.0954 169.319 42.9354 171.41C44.8492 172.819 44.8486 172.89 42.9686 176.41C39.2236 183.42 31.175 179.578 33.1649 171.731ZM267.696 168.981C273.426 168.981 275.119 170.774 273.371 174.993C270.77 181.273 264.078 180.001 263.569 173.129C263.261 168.981 263.261 168.981 267.696 168.981ZM159.448 152.616C163.233 147.805 167.376 150.326 167.376 157.442C167.376 162.776 164.86 166.231 160.976 166.231C154.714 166.231 153.968 159.584 159.448 152.616ZM219.499 156.351C222.081 153.602 224.581 153.329 226.805 155.553C229.465 158.213 227.98 162.421 223.824 164.001C218.528 166.014 215.482 160.626 219.499 156.351ZM132.138 146.054C136.16 143.711 141.73 146.765 142.866 151.935C144.745 160.488 132.178 162.971 129.413 154.593C128.136 150.724 129.053 147.852 132.138 146.054ZM184.272 140.085C189.178 135.179 197.376 139.426 197.376 146.875C197.376 151.373 188.322 153.789 185.043 150.165C182.218 147.044 181.87 142.487 184.272 140.085ZM103.265 136.643C106.172 135.867 106.971 135.965 108.832 137.325C112.7 140.153 107.295 147.407 102.187 146.243C98.8774 145.488 99.7655 137.579 103.265 136.643ZM62.4491 135.616C65.764 131.401 68.3758 132.603 68.3758 138.341C68.3755 143.269 62.4813 147.303 60.9833 143.399C59.9033 140.585 60.3321 138.306 62.4491 135.616ZM158.258 128.107C163.297 122.713 167.571 126.799 165.946 135.459C165.2 139.434 163.282 141.231 159.784 141.231C153.605 141.231 152.763 133.99 158.258 128.107ZM121.831 124.436C124.74 121.526 129.132 122.159 129.998 125.613C130.635 128.147 129.291 130.422 126.17 132.092C121.221 134.74 117.713 128.553 121.831 124.436ZM262.467 115.114C264.971 112.426 267.759 112.682 268.182 115.639C268.678 119.104 265.754 124.981 263.534 124.981C259.887 124.981 259.199 118.621 262.467 115.114ZM219.09 113.601C220.466 112.224 227.646 113.439 228.774 115.24C231.457 119.521 223.801 125.239 219.816 121.931C218.332 120.7 217.823 114.868 219.09 113.601ZM186.626 107.037C189.254 106.009 193.302 106.693 195.224 108.488C197.466 110.583 193.061 116.981 189.376 116.981C184.556 116.981 182.277 108.737 186.626 107.037ZM143.089 101.602C145.174 99.5174 152.875 101.476 153.187 104.17C153.806 109.534 145.807 113.524 143.411 109.047C142.221 106.823 142.041 102.651 143.089 101.602ZM311.489 95.5642C314.286 92.0082 316.785 92.5543 317.195 96.8103C317.572 100.732 315.11 104.981 312.46 104.981C308.888 104.981 308.331 99.5791 311.489 95.5642ZM108.031 95.8103C111.186 92.3234 116.376 94.073 116.376 98.6238C116.376 101.384 112.875 103.981 109.153 103.981C105.832 103.981 105.147 98.9973 108.031 95.8103ZM175.774 83.3865C176.469 81.5745 182.402 81.5484 184.862 83.3474C188.912 86.3095 183.355 92.8823 177.705 91.8113C175.831 91.4563 174.652 86.3105 175.774 83.3865ZM38.5047 74.3435C41.9087 70.7215 43.895 71.6512 43.786 76.8172C43.676 81.981 41.2662 85.0278 38.6073 83.3631C35.9104 81.6751 35.8591 77.1605 38.5047 74.3435ZM257.376 69.9812C259.645 67.7122 260.694 67.5464 263.442 69.0164C268.436 71.6895 262.915 80.2395 257.338 78.4695C254.707 77.6344 254.729 72.6282 257.376 69.9812ZM112.217 45.325C116.782 43.296 117.771 44.0962 117.562 49.6482C117.204 59.1642 105.376 64.0357 105.376 54.6668C105.376 49.9811 107.13 47.5859 112.217 45.325ZM215.774 47.3865C216.895 44.4646 226.393 46.547 226.354 49.7058C226.271 56.3407 216.176 58.6121 215.556 52.1365C215.379 50.2967 215.478 48.1587 215.774 47.3865ZM161.376 36.7224C163.823 35.7714 164.281 35.8862 166.376 37.9812C170.527 42.1322 164.797 48.6148 158.958 46.3738C155.842 45.1776 157.591 38.1946 161.376 36.7224ZM128 2.8445C130.951 -0.416408 135.797 0.664004 136.185 4.66872C136.542 8.36057 133.116 11.3661 129.184 10.8084C126.174 10.3814 125.468 5.64253 128 2.8445ZM209.576 1.18141C212.244 -1.48652 219.392 0.727986 219.344 4.20582C219.236 11.9387 208.439 12.6541 208.391 4.93141C208.383 3.52851 208.916 1.84151 209.576 1.18141Z" fill="#001C16"/>
</g>
<path id="stroke0_1591_5033_ref" d="M287.402 417.575C128.465 401.913 46.8747 307.959 50.274 124.408"/>
<g id="stroke1_1591_5033" data-figma-scatter-ref="stroke1_1591_5033_ref" data-figma-scatter="f0.25_w0_aj30_sj0_r-30_s4833387523621560465_sw56">
<path d="M144.904 352.362C147.954 349.312 149.763 349.672 150.203 353.416C150.707 357.707 148.541 361.981 145.862 361.981C141.689 361.981 141.109 356.157 144.904 352.362ZM233.557 300.848C235.222 299.793 235.148 299.79 239.626 301.034C246.137 302.842 242.834 311.43 236.149 310.074C232.526 309.339 230.657 302.687 233.557 300.848ZM115.043 291.648C115.876 290.814 121.675 290.775 123.794 291.588C127.87 293.152 123.8 300.981 118.911 300.981C115.434 300.981 112.584 294.106 115.043 291.648ZM175 267.844C177.951 264.584 182.797 265.664 183.185 269.669C183.542 273.361 180.116 276.366 176.184 275.808C173.174 275.381 172.468 270.643 175 267.844ZM300.599 259.538C303.26 257.674 305.545 257.551 307.176 259.181C310.959 262.964 304.966 270.3 300.126 267.811C297.566 266.494 297.854 261.461 300.599 259.538ZM65.0379 258.053C67.3289 254.782 73.1336 255.171 74.0077 258.652C74.8097 261.846 70.4911 266.288 67.0751 265.785C64.3022 265.377 63.1012 260.818 65.0379 258.053ZM1.62975 232.231C4.06261 229.617 7.57057 229.306 9.42565 231.541C12.2486 234.942 6.98636 241.476 2.39147 240.275C-0.416467 239.54 -0.856054 234.902 1.62975 232.231ZM227.315 227.042C231.346 223.011 237.247 225.557 235.37 230.516C234.195 233.619 231.794 235.16 228.686 234.803C225.023 234.383 224.265 230.092 227.315 227.042ZM178.376 211.732C181.51 210.534 185.325 212.743 185.361 215.776C185.383 217.706 180.74 221.981 178.621 221.981C173.248 221.981 173.051 213.767 178.376 211.732ZM137.582 210.262C140.566 207.086 142.799 207.702 143.195 211.81C143.572 215.732 141.11 219.981 138.46 219.981C134.822 219.981 134.264 213.794 137.582 210.262ZM104.68 201.937C111.231 197.943 114.57 200.054 112.52 206.893C111.161 211.43 108.789 213.748 104.661 214.574C98.8111 215.744 98.826 205.507 104.68 201.937ZM156.506 182.543C159.544 178.68 163.042 179.112 164.254 183.5C165.996 189.811 163.107 195.981 158.409 195.981C152.055 195.981 151.122 189.388 156.506 182.543ZM332.126 178.425C334.334 175.356 337.748 175.58 338.208 178.826C338.634 181.835 336.64 186.667 334.658 187.427C330.706 188.943 328.979 182.801 332.126 178.425ZM134.324 176.981C140.114 176.981 141.992 179.238 139.609 183.334C135.805 189.874 127.938 186.852 129.768 179.555C130.324 177.339 130.958 176.981 134.324 176.981ZM180.774 170.492C187.383 163.883 194.419 171.193 189.887 179.96C188.034 183.542 185.237 184.501 181.642 182.786C177.638 180.875 177.16 174.106 180.774 170.492ZM112.139 167.546C117.116 164.845 119.376 165.47 119.376 169.547C119.376 175.831 115.282 180.917 110.189 180.959C104.909 181.002 106.413 170.653 112.139 167.546ZM33.1649 171.731C33.7239 169.528 40.0954 169.319 42.9354 171.41C44.8492 172.819 44.8486 172.89 42.9686 176.41C39.2236 183.42 31.175 179.578 33.1649 171.731ZM267.696 168.981C273.426 168.981 275.119 170.774 273.371 174.993C270.77 181.273 264.078 180.001 263.569 173.129C263.261 168.981 263.261 168.981 267.696 168.981ZM159.448 152.616C163.233 147.805 167.376 150.326 167.376 157.442C167.376 162.776 164.86 166.231 160.976 166.231C154.714 166.231 153.968 159.584 159.448 152.616ZM219.499 156.351C222.081 153.602 224.581 153.329 226.805 155.553C229.465 158.213 227.98 162.421 223.824 164.001C218.528 166.014 215.482 160.626 219.499 156.351ZM132.138 146.054C136.16 143.711 141.73 146.765 142.866 151.935C144.745 160.488 132.178 162.971 129.413 154.593C128.136 150.724 129.053 147.852 132.138 146.054ZM184.272 140.085C189.178 135.179 197.376 139.426 197.376 146.875C197.376 151.373 188.322 153.789 185.043 150.165C182.218 147.044 181.87 142.487 184.272 140.085ZM103.265 136.643C106.172 135.867 106.971 135.965 108.832 137.325C112.7 140.153 107.295 147.407 102.187 146.243C98.8774 145.488 99.7655 137.579 103.265 136.643ZM62.4491 135.616C65.764 131.401 68.3758 132.603 68.3758 138.341C68.3755 143.269 62.4813 147.303 60.9833 143.399C59.9033 140.585 60.3321 138.306 62.4491 135.616ZM158.258 128.107C163.297 122.713 167.571 126.799 165.946 135.459C165.2 139.434 163.282 141.231 159.784 141.231C153.605 141.231 152.763 133.99 158.258 128.107ZM121.831 124.436C124.74 121.526 129.132 122.159 129.998 125.613C130.635 128.147 129.291 130.422 126.17 132.092C121.221 134.74 117.713 128.553 121.831 124.436ZM262.467 115.114C264.971 112.426 267.759 112.682 268.182 115.639C268.678 119.104 265.754 124.981 263.534 124.981C259.887 124.981 259.199 118.621 262.467 115.114ZM219.09 113.601C220.466 112.224 227.646 113.439 228.774 115.24C231.457 119.521 223.801 125.239 219.816 121.931C218.332 120.7 217.823 114.868 219.09 113.601ZM186.626 107.037C189.254 106.009 193.302 106.693 195.224 108.488C197.466 110.583 193.061 116.981 189.376 116.981C184.556 116.981 182.277 108.737 186.626 107.037ZM143.089 101.602C145.174 99.5174 152.875 101.476 153.187 104.17C153.806 109.534 145.807 113.524 143.411 109.047C142.221 106.823 142.041 102.651 143.089 101.602ZM311.489 95.5642C314.286 92.0082 316.785 92.5543 317.195 96.8103C317.572 100.732 315.11 104.981 312.46 104.981C308.888 104.981 308.331 99.5791 311.489 95.5642ZM108.031 95.8103C111.186 92.3234 116.376 94.073 116.376 98.6238C116.376 101.384 112.875 103.981 109.153 103.981C105.832 103.981 105.147 98.9973 108.031 95.8103ZM175.774 83.3865C176.469 81.5745 182.402 81.5484 184.862 83.3474C188.912 86.3095 183.355 92.8823 177.705 91.8113C175.831 91.4563 174.652 86.3105 175.774 83.3865ZM38.5047 74.3435C41.9087 70.7215 43.895 71.6512 43.786 76.8172C43.676 81.981 41.2662 85.0278 38.6073 83.3631C35.9104 81.6751 35.8591 77.1605 38.5047 74.3435ZM257.376 69.9812C259.645 67.7122 260.694 67.5464 263.442 69.0164C268.436 71.6895 262.915 80.2395 257.338 78.4695C254.707 77.6344 254.729 72.6282 257.376 69.9812ZM112.217 45.325C116.782 43.296 117.771 44.0962 117.562 49.6482C117.204 59.1642 105.376 64.0357 105.376 54.6668C105.376 49.9811 107.13 47.5859 112.217 45.325ZM215.774 47.3865C216.895 44.4646 226.393 46.547 226.354 49.7058C226.271 56.3407 216.176 58.6121 215.556 52.1365C215.379 50.2967 215.478 48.1587 215.774 47.3865ZM161.376 36.7224C163.823 35.7714 164.281 35.8862 166.376 37.9812C170.527 42.1322 164.797 48.6148 158.958 46.3738C155.842 45.1776 157.591 38.1946 161.376 36.7224ZM128 2.8445C130.951 -0.416408 135.797 0.664004 136.185 4.66872C136.542 8.36057 133.116 11.3661 129.184 10.8084C126.174 10.3814 125.468 5.64253 128 2.8445ZM209.576 1.18141C212.244 -1.48652 219.392 0.727986 219.344 4.20582C219.236 11.9387 208.439 12.6541 208.391 4.93141C208.383 3.52851 208.916 1.84151 209.576 1.18141Z" fill="#001C16"/>
</g>
<path id="stroke1_1591_5033_ref" d="M401 442C161.76 418.425 38.9474 277.001 44.0641 0.711151"/>
<g id="stroke2_1591_5033" data-figma-scatter-ref="stroke2_1591_5033_ref" data-figma-scatter="f0.25_w0_aj180_sj0.3_r-30_s4833387523621560465_sw60">
<path d="M161.622 271.62C162.801 270.44 165.001 270.908 165.598 272.466C166.28 274.243 164.308 276.953 162.333 276.953C160.932 276.952 160.386 272.855 161.622 271.62ZM125.347 271.526C126.214 268.071 129.955 267.913 129.955 271.331C129.955 274.319 127.339 276.737 125.786 275.184C125.188 274.586 124.991 272.944 125.347 271.526ZM90.9548 269.953C92.4998 269.953 93.222 272.086 92.068 273.24C90.688 274.62 88.3711 272.708 89.4011 271.04C89.771 270.442 90.4698 269.953 90.9548 269.953ZM141.512 256.176C145.165 250.962 153.033 256.131 149.547 261.453C147.571 264.469 144.663 264.661 141.955 261.953C139.547 259.545 139.508 259.036 141.512 256.176ZM73.2048 251.23C75.5376 250.164 78.9543 251.195 78.9548 252.965C78.9548 254.503 74.0936 257.221 72.4626 256.595C70.1919 255.723 70.6521 252.397 73.2048 251.23ZM179.586 250.7C181.676 246.659 184.455 247.382 184.455 251.967C184.455 254.88 184.063 255.508 182.068 255.79C178.812 256.251 177.794 254.165 179.586 250.7ZM110.955 251.953C112.5 251.953 113.222 254.086 112.068 255.24C110.688 256.62 108.371 254.708 109.401 253.04C109.771 252.442 110.47 251.953 110.955 251.953ZM125.484 235.308C127.968 233.492 129.882 233.6 130.649 235.599C131.313 237.329 128.652 239.953 126.232 239.953C123.969 239.953 123.459 236.79 125.484 235.308ZM56.4548 232.953C58.3068 232.953 60.1711 235.593 59.7741 237.655C59.5331 238.905 58.5208 239.453 56.4548 239.453C53.15 239.453 51.913 236.914 53.9948 234.405C54.6577 233.606 55.7648 232.953 56.4548 232.953ZM160.318 235.45C161.227 233.081 165.455 233.896 165.455 236.439C165.455 238.645 162.346 239.744 160.716 238.114C160.151 237.549 159.972 236.351 160.318 235.45ZM196.198 234.11C197.852 232.456 202.454 233.054 202.455 234.923C202.455 236.69 198.218 238.991 196.312 238.261C194.617 237.61 194.566 235.742 196.198 234.11ZM90.9548 234.953C91.5047 234.953 91.9547 235.403 91.9548 235.953C91.9548 236.503 91.5048 236.953 90.9548 236.953C90.4049 236.953 89.9548 236.503 89.9548 235.953C89.9548 235.403 90.4049 234.953 90.9548 234.953ZM71.5514 214.259C74.027 212.449 74.6796 212.586 77.6345 215.541C81.1173 219.024 78.0602 223.076 73.2272 221.384C69.8362 220.196 68.8974 216.2 71.5514 214.259ZM34.9665 215.44C37.4415 212.458 42.9548 214.246 42.9548 218.031C42.9548 220.921 40.2601 222.413 37.3972 221.109C34.3162 219.705 33.3325 217.409 34.9665 215.44ZM179.159 214.523C181.95 212.567 185.454 214.484 185.455 217.966C185.455 221.094 183.104 222.358 179.705 221.057C176.335 219.766 176.077 216.681 179.159 214.523ZM214.155 215.153C216.556 212.752 221.955 214.69 221.955 217.953C221.955 220.669 218.715 222.192 215.52 220.978C212.789 219.94 212.14 217.168 214.155 215.153ZM107.319 217.446C108.12 215.36 111.324 215.917 111.767 218.219C112.165 220.284 109.278 221.677 107.755 220.153C107.169 219.567 106.973 218.349 107.319 217.446ZM143.431 216.992C144.483 215.289 148.382 216.176 148.769 218.206C148.952 219.17 148.36 220.245 147.451 220.594C145.466 221.355 142.421 218.627 143.431 216.992ZM123.155 197.153C125.911 194.397 132.955 197.004 132.955 200.779C132.955 203.022 129.938 205.953 127.629 205.953C123.218 205.953 120.231 200.077 123.155 197.153ZM231.155 197.153C233.347 194.961 237.885 195.705 239.141 198.463C240.423 201.275 237.199 205.953 233.981 205.953C230.36 205.953 228.414 199.894 231.155 197.153ZM53.0827 197.007C60.5555 193.946 64.7518 201.175 57.5075 204.629C53.4156 206.581 52.3072 205.961 51.3513 201.185C50.8033 198.446 51.0548 197.838 53.0827 197.007ZM196.205 196.962C197.443 196.453 199.58 196.13 200.955 196.244C205.799 196.649 204.127 203.891 198.873 205.265C194.383 206.438 191.907 198.732 196.205 196.962ZM160.564 197.487C163.37 194.681 166.955 196.37 166.955 200.498C166.955 203.092 163.864 206.133 162.245 205.132C159.905 203.686 158.907 199.144 160.564 197.487ZM88.5593 199.108C90.4402 196.423 92.1249 196.379 94.4548 198.953C96.2018 200.883 96.2018 201.023 94.4548 202.953C90.7188 207.081 85.4033 203.614 88.5593 199.108ZM18.2048 196.615C21.6617 195.22 24.3307 197.341 23.7819 201.046C23.2719 204.483 20.1722 205.903 18.3962 203.513C16.6233 201.125 16.517 197.296 18.2048 196.615ZM177.574 178.242C182.074 174.952 188.12 178.726 186.369 183.733C185.322 186.727 180.908 187.989 178.493 185.984C176.118 184.014 175.604 179.682 177.574 178.242ZM213.622 178.62C214.727 177.515 219.471 177.87 220.755 179.153C222.641 181.039 222.168 184.768 219.888 185.989C215.974 188.084 210.544 181.697 213.622 178.62ZM72.0075 181.391C73.1314 180.037 73.4588 180.028 74.7555 181.325C76.4955 183.065 75.6838 185.953 73.4548 185.953C71.31 185.953 70.4556 183.26 72.0075 181.391ZM106.155 179.153C107.61 177.698 109.02 177.648 112.39 178.929C116.93 180.655 115.094 185.953 109.955 185.953C105.588 185.953 103.354 181.954 106.155 179.153ZM143.339 180.395C144.582 177.156 149.462 180.083 148.774 183.655C148.301 186.112 143.609 186.104 143.134 183.645C142.943 182.651 143.035 181.188 143.339 180.395ZM35.3386 180.395C36.0985 178.414 40.8669 178.56 41.6462 180.589C42.5552 182.958 40.613 185.453 37.86 185.453C35.4112 185.453 34.2738 183.17 35.3386 180.395ZM249.136 180.234C249.767 179.474 251.447 178.987 252.869 179.152C256.507 179.575 256.625 184.287 253.011 184.798C249.914 185.235 247.422 182.3 249.136 180.234ZM1.62176 179.62C2.75172 178.489 3.84231 178.873 4.85028 180.757C6.07525 183.045 4.65825 185.437 2.55633 184.63C0.953362 184.015 0.367857 180.874 1.62176 179.62ZM195.155 161.153C199.2 157.108 205.563 162.129 203.137 167.453C200.971 172.208 193.955 170.297 193.955 164.953C193.955 163.523 194.495 161.813 195.155 161.153ZM122.99 161.888C125.209 157.743 133.337 161.845 132.76 166.819C132.498 169.085 131.921 169.497 128.635 169.768C122.714 170.255 120.308 166.899 122.99 161.888ZM159.2 162.108C160.917 160.391 166.018 161.077 167.349 163.203C168.87 165.631 167.004 168.364 163.544 168.775C158.898 169.328 156.169 165.139 159.2 162.108ZM17.8679 163.847C20.8558 161.398 23.3531 161.759 23.7731 164.704C24.2421 167.99 19.5737 170.013 17.1677 167.566C15.5488 165.919 15.5872 165.716 17.8679 163.847ZM53.3181 164.45C54.2271 162.081 58.4548 162.896 58.4548 165.439C58.4546 167.645 55.3465 168.744 53.7165 167.114C53.1515 166.549 52.972 165.351 53.3181 164.45ZM90.4011 165.04C91.191 163.762 92.6307 163.62 93.3298 164.751C94.2917 166.307 92.1385 168.536 90.8845 167.282C90.2495 166.647 90.0321 165.638 90.4011 165.04ZM233.455 164.953C233.939 164.17 234.514 164.112 235.181 164.779C235.731 165.329 235.854 166.307 235.455 166.953C234.971 167.736 234.396 167.794 233.729 167.127C233.179 166.577 233.056 165.599 233.455 164.953ZM72.155 143.153C74.201 141.107 75.9215 141.814 77.6335 145.405C79.4463 149.206 78.3548 151.953 75.0329 151.953C71.365 151.953 69.3911 145.917 72.155 143.153ZM140.99 143.888C143.209 139.743 151.337 143.845 150.76 148.819C150.498 151.085 149.921 151.497 146.635 151.768C140.714 152.255 138.308 148.899 140.99 143.888ZM214.371 144.31C215.315 141.85 219.296 143.115 220.383 146.22C221.148 148.402 220.991 149.346 219.635 150.702C216.554 153.783 212.585 148.965 214.371 144.31ZM104.622 142.62C105.751 141.49 112.484 141.883 113.755 143.153C116.971 146.369 114.013 150.953 108.721 150.953C104.846 150.953 102.025 145.217 104.622 142.62ZM248.622 142.62C251.659 139.582 258.199 144.269 256.629 148.359C255.819 150.469 251.281 151.469 249.442 149.942C247.938 148.694 247.395 143.847 248.622 142.62ZM35.155 143.153C36.8479 141.46 39.9777 141.664 42.1257 143.608C44.6817 145.921 44.4038 148.791 41.4958 150.116C36.8629 152.227 31.7242 146.584 35.155 143.153ZM178.001 143.398C180.63 140.23 185.955 142.327 185.955 146.531C185.955 149.786 183.572 151.325 180.239 150.22C177.156 149.198 176.032 145.771 178.001 143.398ZM1.18426 144.124C2.95012 142.358 5.40436 143.125 5.75262 145.551C6.10859 148.031 3.58934 150.41 1.46844 149.597C-0.35556 148.897 -0.51474 145.823 1.18426 144.124ZM125.522 126.879C128.986 123.051 132.286 125.737 130.077 130.585C129.266 132.364 128.29 132.997 126.706 132.771C123.867 132.366 123.266 129.372 125.522 126.879ZM90.9548 125.953C92.4118 125.953 94.1733 128.943 93.5983 130.44C93.2793 131.272 92.0897 131.953 90.9548 131.953C88.4109 131.953 87.3045 129.442 88.9665 127.44C89.6443 126.623 90.5397 125.953 90.9548 125.953ZM231.291 128.52C232.202 126.145 235.955 126.518 235.955 128.984C235.955 131.343 233.31 132.708 231.755 131.153C231.169 130.567 230.96 129.382 231.291 128.52ZM53.3386 125.395C54.5816 122.156 59.4621 125.083 58.7741 128.655C58.3011 131.112 53.6088 131.104 53.1345 128.645C52.9435 127.651 53.0347 126.187 53.3386 125.395ZM196.339 125.395C197.582 122.156 202.462 125.083 201.774 128.655C201.301 131.112 196.609 131.104 196.134 128.645C195.943 127.651 196.035 126.187 196.339 125.395ZM18.7048 123.033C21.1938 121.583 21.6583 121.691 23.3513 124.108C26.093 128.023 21.5169 132.115 18.155 128.753C16.4142 127.012 16.684 124.21 18.7048 123.033ZM161.551 123.259C163.914 121.531 164.32 121.594 166.508 124.013C168.958 126.719 167.37 129.453 163.346 129.453C159.801 129.453 158.626 125.398 161.551 123.259ZM176.792 108.412C178.282 105.142 183.179 105.008 185.398 108.176C187.404 111.039 187.359 112.233 185.143 114.97C181.634 119.302 174.413 113.633 176.792 108.412ZM35.1979 107.11C38.6209 103.687 45.9262 109.585 43.3542 113.694C42.0142 115.835 37.3673 116.54 35.3952 114.903C33.6272 113.436 33.51 108.798 35.1979 107.11ZM106.155 108.153C109.274 105.034 116.569 109.157 114.312 112.763C113.008 114.846 108.341 115.518 106.395 113.903C104.642 112.449 104.531 109.777 106.155 108.153ZM248.885 109.537C251.5 106.388 256.541 108.671 255.774 112.655C255.536 113.889 254.525 114.453 252.55 114.453C248.965 114.453 246.996 111.813 248.885 109.537ZM72.7048 108.014C75.4777 106.366 78.4171 107.183 78.7741 109.701C79.1151 112.099 74.9529 114.55 72.2829 113.525C70.3741 112.793 70.6471 109.236 72.7048 108.014ZM215.577 108.24C217.848 106.579 219.901 106.913 221.325 109.175C222.736 111.415 221.245 112.962 217.404 113.243C213.892 113.5 212.731 110.321 215.577 108.24ZM1.36395 110.329C1.86393 109.025 2.29819 108.896 3.18817 109.786C4.07716 110.675 4.07356 111.235 3.17156 112.137C1.6438 113.664 0.517033 112.537 1.36395 110.329ZM142.401 110.04C143.42 108.392 146.955 108.737 146.955 110.484C146.955 111.327 146.25 112.286 145.388 112.617C143.507 113.339 141.456 111.569 142.401 110.04ZM198.332 89.7538C199.769 88.8208 202.955 91.7971 202.955 94.0731C202.955 95.0681 202.085 96.3478 201.021 96.9179C195.912 99.6518 193.399 92.9558 198.332 89.7538ZM53.9899 90.8876C55.8619 87.3906 59.9547 89.2641 59.9548 93.6181C59.9548 96.521 56.4363 98.597 54.3913 96.9003C52.6944 95.4924 52.5651 93.5514 53.9899 90.8876ZM124.949 91.4599C126.748 89.2921 129.384 89.9791 129.775 92.7177C130.185 95.5927 127.358 96.7845 125.213 94.6405C123.886 93.3125 123.842 92.7938 124.949 91.4599ZM89.9548 92.453C89.9548 91.5361 90.439 90.9484 91.03 91.1454C91.6209 91.3424 92.1051 91.9311 92.1052 92.453C92.1052 92.975 91.621 93.5646 91.03 93.7616C90.439 93.9584 89.9548 93.3699 89.9548 92.453ZM106.012 73.8466C107.322 71.3997 110.172 71.4303 112.421 73.9159C114.452 76.1589 113.962 78.3446 111.082 79.8856C108.331 81.3569 104.461 76.7474 106.012 73.8466ZM71.7048 71.0331C74.3617 69.4851 75.3919 69.7252 77.9968 72.4979C80.7467 75.4249 79.87 78.213 76.0202 78.7831C71.4303 79.4631 67.953 73.2192 71.7048 71.0331ZM178.705 71.0331C181.256 69.5472 182.435 69.7213 184.38 71.871C188.234 76.1299 184.175 80.7468 179.008 77.9813C176.476 76.6264 176.293 72.4382 178.705 71.0331ZM214.155 72.1532C216.97 69.3383 222.522 71.8079 221.788 75.5477C221.237 78.3477 218.469 79.5078 215.533 78.1698C212.799 76.9248 212.163 74.1451 214.155 72.1532ZM34.9665 72.4403C36.6944 70.3586 40.3146 70.5883 42.4206 72.9159C45.6806 76.5179 42.054 80.2297 37.363 78.0927C34.3142 76.7037 33.3375 74.4023 34.9665 72.4403ZM143.955 74.452C145.696 72.3551 148.455 72.9691 148.455 75.453C148.455 77.662 145.336 78.7338 143.691 77.0888C142.956 76.3538 143.035 75.5609 143.955 74.452ZM91.4548 52.953C93.1596 52.953 95.0944 53.4933 95.7546 54.1532C98.5466 56.9452 95.7296 62.953 91.6286 62.953C87.2179 62.9526 84.2312 57.0771 87.155 54.1532C87.8149 53.4932 89.7498 52.9531 91.4548 52.953ZM123.2 54.1083C125.267 52.0413 129.919 53.1572 131.727 56.1522C134.87 61.3581 127.017 65.7348 123.512 60.7304C121.632 58.0474 121.526 55.7823 123.2 54.1083ZM234.455 52.953C238.789 52.953 240.43 57.6659 237.3 61.1239C235.255 63.3829 234.127 63.4187 231.784 61.2977C229.695 59.4067 229.388 55.9202 231.155 54.1532C231.815 53.4933 233.3 52.9531 234.455 52.953ZM53.2048 53.9618C59.9138 51.1998 63.8957 56.4948 58.3747 60.8368C54.8289 63.6256 53.1163 63.5071 51.9304 60.3886C50.4444 56.4786 50.7419 54.9758 53.2048 53.9618ZM160.564 54.4872C163.37 51.6813 166.955 53.3701 166.955 57.4979C166.955 60.0919 163.864 63.1327 162.245 62.1317C159.905 60.6855 158.907 56.1441 160.564 54.4872ZM195.587 54.2323C198.69 51.9604 203.399 52.9831 203.752 56.0048C204.176 59.6408 200.641 62.5122 196.284 62.0712C194.057 61.8459 193.515 55.7487 195.587 54.2323ZM17.3473 55.3749C18.0766 53.4732 21.3902 53.5672 23.0251 55.537C24.5491 57.374 23.2487 60.2546 20.6647 60.7636C18.8228 61.126 16.5544 57.4408 17.3473 55.3749ZM106.155 36.1532C107.628 34.6802 109.479 34.6282 112.021 35.9882C115.627 37.9182 113.772 42.953 109.455 42.953C105.545 42.9528 103.522 38.7862 106.155 36.1532ZM177.155 35.1532C178.855 33.4532 183.471 33.6656 185.005 35.5136C188.37 39.5695 181.517 45.325 177.395 41.9032C175.645 40.4512 175.515 36.7932 177.155 35.1532ZM35.9948 36.4052C37.4888 34.6052 39.0418 34.5655 41.3727 36.2694C43.4967 37.8224 43.1708 40.7877 40.7048 42.3407C37.2398 44.5227 33.338 39.6062 35.9948 36.4052ZM71.155 36.1532C73.9848 33.3233 79.3609 36.035 78.8005 40.0087C78.5425 41.8396 77.7501 42.5343 75.6452 42.7753C70.9402 43.3153 68.1341 39.1742 71.155 36.1532ZM144.168 37.1415C145.639 35.6695 146.962 36.0172 148.367 38.244C149.929 40.72 146.723 43.835 144.505 41.995C142.643 40.4492 142.527 38.7813 144.168 37.1415ZM214.033 37.3593C215.127 36.0413 215.465 36.0355 216.737 37.3075C218.339 38.9095 217.62 40.953 215.455 40.953C213.373 40.9529 212.623 39.0582 214.033 37.3593ZM195.979 22.9296C199.6 19.3086 204.362 21.486 203.791 26.5018C203.483 29.2058 203.13 29.453 199.57 29.453C194.623 29.453 192.788 26.1205 195.979 22.9296ZM122.99 18.8876C125.233 14.6976 132.366 18.4534 131.789 23.5214C131.523 25.8602 130.909 26.5165 128.754 26.7655C123.152 27.4112 120.424 23.6833 122.99 18.8876ZM54.11 19.5575C58.552 16.4465 62.0997 21.7018 58.0378 25.3778C56.5088 26.7618 55.6998 26.8869 54.0378 25.9979C51.3411 24.5539 51.3753 21.4734 54.11 19.5575ZM163.455 17.953C166.798 17.953 168.127 23.2547 165.179 24.8329C161.481 26.8119 158.169 22.1392 161.155 19.1532C161.815 18.4933 162.85 17.9532 163.455 17.953ZM91.9548 21.953C92.5047 21.953 92.9547 22.4031 92.9548 22.953C92.9548 23.503 92.5048 23.953 91.9548 23.953C91.4049 23.9529 90.9548 23.5029 90.9548 22.953C90.9548 22.4032 91.4049 21.9532 91.9548 21.953ZM107.061 1.75477C108.525 -0.979662 111.39 -0.0898075 111.772 3.21669C112.171 6.67755 109.3 8.145 107.349 5.47743C106.397 4.17543 106.317 3.14477 107.061 1.75477ZM142.264 1.58876C143.043 -0.437771 147.288 -0.554549 148.915 1.40517C150.968 3.87805 149.761 6.45278 146.55 6.45302C143.362 6.45302 141.297 4.10976 142.264 1.58876Z" fill="#001C16"/>
</g>
<path id="stroke2_1591_5033_ref" d="M249.49 426.902C90.5533 411.24 22.7197 381.947 30.9791 93.8685"/>
</defs>
</svg>
