<svg width="1024" height="402" viewBox="0 0 1024 402" fill="none" xmlns="http://www.w3.org/2000/svg">
<path d="M200.374 11.3777C163.061 11.3186 126.591 22.3891 95.5413 43.1929C64.4921 63.9966 40.2625 93.6065 25.9479 128.252C11.6331 162.895 7.85144 201.018 15.099 237.816C22.3467 274.616 40.2841 308.449 66.6497 334.993C93.0151 361.539 126.62 379.628 163.211 386.967C199.803 394.304 237.76 390.539 272.237 376.195C306.713 361.852 336.176 337.559 356.911 306.371C377.646 275.185 388.726 238.513 388.726 201C388.726 150.755 368.872 102.559 333.559 67.0063C298.247 31.4538 250.347 11.4472 200.374 11.3777ZM432.083 23.996V377.734H591.159L635.285 295.022H514.372L514.602 23.996H432.083ZM823.907 24.5337L635.285 377.733H728.807L823.907 199.421L918.968 377.733H1012.49L823.907 24.5337ZM195.065 98.9744C210.004 98.2278 225.022 100.798 238.96 106.592C257.542 114.317 273.41 127.411 284.586 144.216C295.764 161.023 301.744 180.782 301.744 200.999C301.685 228.118 290.912 254.095 271.814 273.247C252.789 292.325 227.043 303.095 200.182 303.177C180.14 303.192 160.552 297.215 143.86 286.057C127.116 274.864 114.044 258.94 106.313 240.277C98.5821 221.614 96.5358 201.06 100.427 181.225C104.318 161.39 113.964 143.18 128.164 128.866C142.365 114.552 160.458 104.784 180.177 100.821C185.106 99.8302 190.085 99.2225 195.065 98.9744Z" fill="#003328"/>
</svg>
