<svg width="150" height="48" viewBox="0 0 150 48" fill="none" xmlns="http://www.w3.org/2000/svg">
<mask id="path-1-outside-1_1822_23307" maskUnits="userSpaceOnUse" x="-0.35376" y="-1" width="148" height="27" fill="black">
<rect fill="white" x="-0.35376" y="-1" width="148" height="27"/>
<path d="M0.64624 24.0075C0.64624 23.5335 1.00772 23.1552 1.47051 23.0551C2.2558 22.8854 2.76239 22.5114 2.76239 21.3485V3.06375L1.38145 2.60291C1.0396 2.48883 0.809021 2.16856 0.809021 1.80781C0.809021 1.41739 1.0783 1.07868 1.45833 0.991077L5.15665 0.138526C5.55597 0.0464716 5.96443 0 6.37421 0H6.40869V11.375C7.77605 9.28902 9.98987 7.92011 12.2363 7.92011C15.1012 7.92011 16.9895 10.1364 16.9895 13.1676V21.3485C16.9895 22.5172 17.4822 22.8891 18.2797 23.0577C18.7433 23.1556 19.1056 23.5343 19.1056 24.0087C19.1056 24.5195 18.6919 24.9337 18.1816 24.9337H12.1184C11.6081 24.9337 11.1945 24.5195 11.1945 24.0087C11.1945 23.5343 11.5566 23.155 12.0205 23.0586C12.8296 22.8905 13.3432 22.5194 13.3432 21.3485V14.178C13.3432 12.4505 12.3665 11.4076 10.7061 11.4076C9.30619 11.4076 7.64583 12.2224 6.40869 13.5913V21.3485C6.40869 22.5114 6.91529 22.8854 7.70057 23.0551C8.16337 23.1552 8.52484 23.5335 8.52484 24.0075C8.52484 24.519 8.11064 24.9337 7.59969 24.9337H1.57139C1.06045 24.9337 0.64624 24.519 0.64624 24.0075Z"/>
<path d="M40.7852 25.3248C38.0504 25.3248 36.0971 23.5974 36.0971 20.9899C36.0971 18.6758 37.5947 17.2743 40.8828 16.2639L45.9942 14.6669V13.3306C45.9942 11.4728 44.9198 10.2668 43.1943 10.2668C41.5014 10.2668 40.3294 11.4076 40.2968 13.2328C40.2786 13.706 39.8902 14.0802 39.4172 14.0802H37.1714C36.8478 14.0802 36.5854 13.8175 36.5854 13.4935C36.5854 10.2668 39.548 7.92011 43.3246 7.92011C47.036 7.92011 49.6405 10.0713 49.6405 13.0372V20.8596C49.6405 21.9677 50.0637 22.5544 50.9101 22.5544C51.268 22.5544 51.7448 22.6149 51.891 22.942L51.9987 23.1831C52.0788 23.3624 52.0744 23.5706 51.9745 23.7397C51.0621 25.2858 50.0002 25.3248 49.2498 25.3248C47.3615 25.3248 46.2546 24.1189 46.0267 22.4892C44.5617 24.347 42.9013 25.3248 40.7852 25.3248ZM42.6409 22.2611C43.4236 22.2611 44.3203 22.0329 45.1007 21.6457C45.6975 21.3496 45.9942 20.6984 45.9942 20.0316V16.2965L42.8362 17.4047C41.2735 17.9588 40.2317 18.8388 40.2317 20.2077C40.2317 21.4788 41.1107 22.2611 42.6409 22.2611Z"/>
<path d="M53.1753 24.0075C53.1753 23.5335 53.5367 23.1552 53.9995 23.0551C54.7848 22.8854 55.2914 22.5114 55.2914 21.3485V3.06375L53.9109 2.60306C53.5688 2.48889 53.338 2.16837 53.338 1.80734C53.338 1.41707 53.6069 1.07837 53.9867 0.990242L58.254 0H58.9377V21.3485C58.9377 22.5114 59.4443 22.8854 60.2296 23.0551C60.6924 23.1552 61.0539 23.5335 61.0539 24.0075C61.0539 24.519 60.6397 24.9337 60.1287 24.9337H54.1004C53.5895 24.9337 53.1753 24.519 53.1753 24.0075Z"/>
<path d="M68.3569 25.3248C65.6873 25.3248 64.1571 23.4344 64.1571 20.827V10.9839H62.1454C61.5483 10.9839 61.0643 10.4993 61.0643 9.90154C61.0643 9.4703 61.3221 9.08308 61.7104 8.89631C63.8613 7.86162 65.1441 6.66245 66.3053 4.59294C66.4494 4.3363 66.7179 4.17191 67.0119 4.17191C67.449 4.17191 67.8034 4.52669 67.8034 4.96434V8.60457L71.5367 8.38032C72.1604 8.34285 72.6869 8.8392 72.6869 9.46481V9.89743C72.6869 10.4974 72.201 10.9839 71.6017 10.9839H67.8034V19.947C67.8034 21.4136 68.6824 22.3914 70.2777 22.3914C70.7697 22.3914 71.3263 22.301 71.8255 22.1363C72.2619 21.9923 72.784 22.1579 72.9623 22.5818C73.0726 22.8442 73.026 23.1492 72.8255 23.3511C71.5013 24.6841 69.8317 25.3248 68.3569 25.3248Z"/>
<path d="M74.1669 24.0075C74.1669 23.5335 74.5284 23.1552 74.9912 23.0551C75.7765 22.8854 76.283 22.5114 76.283 21.3485V3.06375L74.9021 2.60291C74.5603 2.48883 74.3297 2.16856 74.3297 1.80781C74.3297 1.41739 74.599 1.07868 74.979 0.991076L79.2782 0H79.9293V11.375C81.2967 9.28902 83.5105 7.92011 85.7569 7.92011C88.6219 7.92011 90.5101 10.1364 90.5101 13.1676V21.3485C90.5101 22.5172 91.0029 22.8891 91.8004 23.0577C92.2639 23.1556 92.6263 23.5343 92.6263 24.0087C92.6263 24.5195 92.2126 24.9337 91.7023 24.9337H85.6391C85.1288 24.9337 84.7151 24.5195 84.7151 24.0087C84.7151 23.5343 85.0773 23.155 85.5412 23.0586C86.3502 22.8905 86.8638 22.5194 86.8638 21.3485V14.178C86.8638 12.4505 85.8871 11.4076 84.2268 11.4076C82.8268 11.4076 81.1665 12.2224 79.9293 13.5913V21.3485C79.9293 22.5114 80.4359 22.8854 81.2212 23.0551C81.684 23.1552 82.0455 23.5335 82.0455 24.0075C82.0455 24.519 81.6313 24.9337 81.1203 24.9337H75.0921C74.5811 24.9337 74.1669 24.519 74.1669 24.0075Z"/>
<path d="M93.9224 24.0155C93.9224 23.5392 94.2881 23.1528 94.7584 23.0813C95.7937 22.9241 96.4618 22.5752 96.4618 21.3485V10.9839H94.6632C94.0743 10.9839 93.5968 10.5059 93.5968 9.91625C93.5968 9.37327 94.0039 8.91678 94.5428 8.85547L96.4618 8.63716V7.88752C96.4618 4.07413 99.164 1.4015 103.071 1.4015C103.334 1.4015 103.548 1.61552 103.548 1.87954V4.29142C103.548 4.89144 103.062 5.37786 102.463 5.37786H102.094C100.303 5.37786 99.2291 6.29046 99.2291 7.82233V8.31123H102.441C103.041 8.31123 103.526 8.79764 103.526 9.39766V9.89743C103.526 10.4974 103.041 10.9839 102.441 10.9839H100.108V21.3485C100.108 22.5752 100.776 22.9241 101.811 23.0813C102.282 23.1528 102.647 23.5392 102.647 24.0155C102.647 24.5226 102.237 24.9337 101.73 24.9337H94.8396C94.333 24.9337 93.9224 24.5226 93.9224 24.0155Z"/>
<path d="M105.001 24.0075C105.001 23.5335 105.362 23.1552 105.825 23.0551C106.61 22.8854 107.117 22.5114 107.117 21.3485V3.06375L105.736 2.60306C105.394 2.48889 105.163 2.16837 105.163 1.80734C105.163 1.41707 105.432 1.07837 105.812 0.990242L109.898 0.0420886C110.019 0.0141207 110.142 0 110.266 0H110.763V21.3485C110.763 22.5114 111.27 22.8854 112.055 23.0551C112.518 23.1552 112.879 23.5335 112.879 24.0075C112.879 24.519 112.465 24.9337 111.954 24.9337H105.926C105.415 24.9337 105.001 24.519 105.001 24.0075Z"/>
<path d="M138.852 23.9933C138.852 23.5235 139.209 23.1513 139.646 22.9811C140.273 22.7371 140.669 22.2613 139.991 21.3485L137.289 17.698L134.424 21.707C133.845 22.5141 133.909 22.9113 134.677 23.0799C135.146 23.1831 135.531 23.5535 135.531 24.035C135.531 24.5313 135.129 24.9337 134.634 24.9337H130.088C129.588 24.9337 129.183 24.5278 129.183 24.027C129.183 23.5476 129.562 23.1647 130.021 23.0273C130.733 22.8139 131.346 22.3804 131.82 21.7396L135.922 16.2639L132.471 11.8965C131.728 10.9432 131.134 10.4709 130.488 10.243C130.04 10.0851 129.671 9.70879 129.671 9.23372C129.671 8.72424 130.084 8.31123 130.593 8.31123H136.938C137.456 8.31123 137.875 8.73138 137.875 9.24965C137.875 9.71999 137.504 10.0751 137.091 10.2986C136.6 10.5638 136.436 11.056 137.094 11.8965L139.047 14.4713L141.229 11.6357C141.788 10.941 141.84 10.4928 141.437 10.2594C141.021 10.0192 140.61 9.69568 140.61 9.21567C140.61 8.71616 141.015 8.31123 141.513 8.31123H145.717C146.223 8.31123 146.633 8.72161 146.633 9.22785C146.633 9.70457 146.263 10.0903 145.806 10.223C144.986 10.4609 144.277 10.9459 143.735 11.6357L140.35 15.8402L144.452 21.3485C145.138 22.2559 145.51 22.7573 146.207 23.0055C146.654 23.1645 147.024 23.5351 147.024 24.0098C147.024 24.52 146.61 24.9337 146.101 24.9337H139.791C139.273 24.9337 138.852 24.5127 138.852 23.9933Z"/>
<path d="M123.782 24.807C119.445 26.1013 115.449 23.5188 114.044 18.8024C112.565 13.8361 114.79 9.32886 119.096 8.04388C122.851 6.92315 125.988 8.82934 127.702 12.6569C127.956 13.2229 127.626 13.8646 127.032 14.0418L119.439 16.308C118.29 16.6509 117.596 17.8933 118.219 18.9187C119.562 21.1299 121.689 21.7923 123.879 21.139C125.772 20.5739 127.322 19.1347 128.049 17.4192C128.173 17.1252 128.496 16.9545 128.8 17.0511C129.032 17.1248 129.194 17.3368 129.191 17.5804C129.151 20.7927 127.285 23.7615 123.782 24.807ZM117.013 15.1956L122.735 13.4877C123.348 13.3049 123.681 12.6252 123.343 12.0821C122.393 10.5573 121.019 9.9186 119.547 10.358C117.644 10.926 116.73 12.7631 117.013 15.1956Z"/>
<path d="M29.4704 24.807C25.1337 26.1013 21.1374 23.5188 19.7329 18.8024C18.2541 13.8361 20.479 9.32886 24.7845 8.04388C28.5397 6.92315 31.6762 8.82934 33.3908 12.6569C33.6443 13.2229 33.3147 13.8646 32.7209 14.0418L25.1278 16.308C23.9791 16.6509 23.2851 17.8933 23.9078 18.9187C25.2506 21.1299 27.378 21.7923 29.5672 21.139C31.4607 20.5739 33.0103 19.1347 33.7375 17.4192C33.8621 17.1252 34.1844 16.9545 34.4884 17.0511C34.7204 17.1248 34.8829 17.3368 34.8799 17.5804C34.84 20.7927 32.9735 23.7615 29.4704 24.807ZM22.7016 15.1956L28.4239 13.4877C29.0364 13.3049 29.3693 12.6252 29.0312 12.0821C28.082 10.5573 26.7079 9.9186 25.2358 10.358C23.3326 10.926 22.4189 12.7631 22.7016 15.1956Z"/>
</mask>
<path d="M0.64624 24.0075C0.64624 23.5335 1.00772 23.1552 1.47051 23.0551C2.2558 22.8854 2.76239 22.5114 2.76239 21.3485V3.06375L1.38145 2.60291C1.0396 2.48883 0.809021 2.16856 0.809021 1.80781C0.809021 1.41739 1.0783 1.07868 1.45833 0.991077L5.15665 0.138526C5.55597 0.0464716 5.96443 0 6.37421 0H6.40869V11.375C7.77605 9.28902 9.98987 7.92011 12.2363 7.92011C15.1012 7.92011 16.9895 10.1364 16.9895 13.1676V21.3485C16.9895 22.5172 17.4822 22.8891 18.2797 23.0577C18.7433 23.1556 19.1056 23.5343 19.1056 24.0087C19.1056 24.5195 18.6919 24.9337 18.1816 24.9337H12.1184C11.6081 24.9337 11.1945 24.5195 11.1945 24.0087C11.1945 23.5343 11.5566 23.155 12.0205 23.0586C12.8296 22.8905 13.3432 22.5194 13.3432 21.3485V14.178C13.3432 12.4505 12.3665 11.4076 10.7061 11.4076C9.30619 11.4076 7.64583 12.2224 6.40869 13.5913V21.3485C6.40869 22.5114 6.91529 22.8854 7.70057 23.0551C8.16337 23.1552 8.52484 23.5335 8.52484 24.0075C8.52484 24.519 8.11064 24.9337 7.59969 24.9337H1.57139C1.06045 24.9337 0.64624 24.519 0.64624 24.0075Z" fill="white"/>
<path d="M40.7852 25.3248C38.0504 25.3248 36.0971 23.5974 36.0971 20.9899C36.0971 18.6758 37.5947 17.2743 40.8828 16.2639L45.9942 14.6669V13.3306C45.9942 11.4728 44.9198 10.2668 43.1943 10.2668C41.5014 10.2668 40.3294 11.4076 40.2968 13.2328C40.2786 13.706 39.8902 14.0802 39.4172 14.0802H37.1714C36.8478 14.0802 36.5854 13.8175 36.5854 13.4935C36.5854 10.2668 39.548 7.92011 43.3246 7.92011C47.036 7.92011 49.6405 10.0713 49.6405 13.0372V20.8596C49.6405 21.9677 50.0637 22.5544 50.9101 22.5544C51.268 22.5544 51.7448 22.6149 51.891 22.942L51.9987 23.1831C52.0788 23.3624 52.0744 23.5706 51.9745 23.7397C51.0621 25.2858 50.0002 25.3248 49.2498 25.3248C47.3615 25.3248 46.2546 24.1189 46.0267 22.4892C44.5617 24.347 42.9013 25.3248 40.7852 25.3248ZM42.6409 22.2611C43.4236 22.2611 44.3203 22.0329 45.1007 21.6457C45.6975 21.3496 45.9942 20.6984 45.9942 20.0316V16.2965L42.8362 17.4047C41.2735 17.9588 40.2317 18.8388 40.2317 20.2077C40.2317 21.4788 41.1107 22.2611 42.6409 22.2611Z" fill="white"/>
<path d="M53.1753 24.0075C53.1753 23.5335 53.5367 23.1552 53.9995 23.0551C54.7848 22.8854 55.2914 22.5114 55.2914 21.3485V3.06375L53.9109 2.60306C53.5688 2.48889 53.338 2.16837 53.338 1.80734C53.338 1.41707 53.6069 1.07837 53.9867 0.990242L58.254 0H58.9377V21.3485C58.9377 22.5114 59.4443 22.8854 60.2296 23.0551C60.6924 23.1552 61.0539 23.5335 61.0539 24.0075C61.0539 24.519 60.6397 24.9337 60.1287 24.9337H54.1004C53.5895 24.9337 53.1753 24.519 53.1753 24.0075Z" fill="white"/>
<path d="M68.3569 25.3248C65.6873 25.3248 64.1571 23.4344 64.1571 20.827V10.9839H62.1454C61.5483 10.9839 61.0643 10.4993 61.0643 9.90154C61.0643 9.4703 61.3221 9.08308 61.7104 8.89631C63.8613 7.86162 65.1441 6.66245 66.3053 4.59294C66.4494 4.3363 66.7179 4.17191 67.0119 4.17191C67.449 4.17191 67.8034 4.52669 67.8034 4.96434V8.60457L71.5367 8.38032C72.1604 8.34285 72.6869 8.8392 72.6869 9.46481V9.89743C72.6869 10.4974 72.201 10.9839 71.6017 10.9839H67.8034V19.947C67.8034 21.4136 68.6824 22.3914 70.2777 22.3914C70.7697 22.3914 71.3263 22.301 71.8255 22.1363C72.2619 21.9923 72.784 22.1579 72.9623 22.5818C73.0726 22.8442 73.026 23.1492 72.8255 23.3511C71.5013 24.6841 69.8317 25.3248 68.3569 25.3248Z" fill="white"/>
<path d="M74.1669 24.0075C74.1669 23.5335 74.5284 23.1552 74.9912 23.0551C75.7765 22.8854 76.283 22.5114 76.283 21.3485V3.06375L74.9021 2.60291C74.5603 2.48883 74.3297 2.16856 74.3297 1.80781C74.3297 1.41739 74.599 1.07868 74.979 0.991076L79.2782 0H79.9293V11.375C81.2967 9.28902 83.5105 7.92011 85.7569 7.92011C88.6219 7.92011 90.5101 10.1364 90.5101 13.1676V21.3485C90.5101 22.5172 91.0029 22.8891 91.8004 23.0577C92.2639 23.1556 92.6263 23.5343 92.6263 24.0087C92.6263 24.5195 92.2126 24.9337 91.7023 24.9337H85.6391C85.1288 24.9337 84.7151 24.5195 84.7151 24.0087C84.7151 23.5343 85.0773 23.155 85.5412 23.0586C86.3502 22.8905 86.8638 22.5194 86.8638 21.3485V14.178C86.8638 12.4505 85.8871 11.4076 84.2268 11.4076C82.8268 11.4076 81.1665 12.2224 79.9293 13.5913V21.3485C79.9293 22.5114 80.4359 22.8854 81.2212 23.0551C81.684 23.1552 82.0455 23.5335 82.0455 24.0075C82.0455 24.519 81.6313 24.9337 81.1203 24.9337H75.0921C74.5811 24.9337 74.1669 24.519 74.1669 24.0075Z" fill="white"/>
<path d="M93.9224 24.0155C93.9224 23.5392 94.2881 23.1528 94.7584 23.0813C95.7937 22.9241 96.4618 22.5752 96.4618 21.3485V10.9839H94.6632C94.0743 10.9839 93.5968 10.5059 93.5968 9.91625C93.5968 9.37327 94.0039 8.91678 94.5428 8.85547L96.4618 8.63716V7.88752C96.4618 4.07413 99.164 1.4015 103.071 1.4015C103.334 1.4015 103.548 1.61552 103.548 1.87954V4.29142C103.548 4.89144 103.062 5.37786 102.463 5.37786H102.094C100.303 5.37786 99.2291 6.29046 99.2291 7.82233V8.31123H102.441C103.041 8.31123 103.526 8.79764 103.526 9.39766V9.89743C103.526 10.4974 103.041 10.9839 102.441 10.9839H100.108V21.3485C100.108 22.5752 100.776 22.9241 101.811 23.0813C102.282 23.1528 102.647 23.5392 102.647 24.0155C102.647 24.5226 102.237 24.9337 101.73 24.9337H94.8396C94.333 24.9337 93.9224 24.5226 93.9224 24.0155Z" fill="white"/>
<path d="M105.001 24.0075C105.001 23.5335 105.362 23.1552 105.825 23.0551C106.61 22.8854 107.117 22.5114 107.117 21.3485V3.06375L105.736 2.60306C105.394 2.48889 105.163 2.16837 105.163 1.80734C105.163 1.41707 105.432 1.07837 105.812 0.990242L109.898 0.0420886C110.019 0.0141207 110.142 0 110.266 0H110.763V21.3485C110.763 22.5114 111.27 22.8854 112.055 23.0551C112.518 23.1552 112.879 23.5335 112.879 24.0075C112.879 24.519 112.465 24.9337 111.954 24.9337H105.926C105.415 24.9337 105.001 24.519 105.001 24.0075Z" fill="white"/>
<path d="M138.852 23.9933C138.852 23.5235 139.209 23.1513 139.646 22.9811C140.273 22.7371 140.669 22.2613 139.991 21.3485L137.289 17.698L134.424 21.707C133.845 22.5141 133.909 22.9113 134.677 23.0799C135.146 23.1831 135.531 23.5535 135.531 24.035C135.531 24.5313 135.129 24.9337 134.634 24.9337H130.088C129.588 24.9337 129.183 24.5278 129.183 24.027C129.183 23.5476 129.562 23.1647 130.021 23.0273C130.733 22.8139 131.346 22.3804 131.82 21.7396L135.922 16.2639L132.471 11.8965C131.728 10.9432 131.134 10.4709 130.488 10.243C130.04 10.0851 129.671 9.70879 129.671 9.23372C129.671 8.72424 130.084 8.31123 130.593 8.31123H136.938C137.456 8.31123 137.875 8.73138 137.875 9.24965C137.875 9.71999 137.504 10.0751 137.091 10.2986C136.6 10.5638 136.436 11.056 137.094 11.8965L139.047 14.4713L141.229 11.6357C141.788 10.941 141.84 10.4928 141.437 10.2594C141.021 10.0192 140.61 9.69568 140.61 9.21567C140.61 8.71616 141.015 8.31123 141.513 8.31123H145.717C146.223 8.31123 146.633 8.72161 146.633 9.22785C146.633 9.70457 146.263 10.0903 145.806 10.223C144.986 10.4609 144.277 10.9459 143.735 11.6357L140.35 15.8402L144.452 21.3485C145.138 22.2559 145.51 22.7573 146.207 23.0055C146.654 23.1645 147.024 23.5351 147.024 24.0098C147.024 24.52 146.61 24.9337 146.101 24.9337H139.791C139.273 24.9337 138.852 24.5127 138.852 23.9933Z" fill="white"/>
<path d="M123.782 24.807C119.445 26.1013 115.449 23.5188 114.044 18.8024C112.565 13.8361 114.79 9.32886 119.096 8.04388C122.851 6.92315 125.988 8.82934 127.702 12.6569C127.956 13.2229 127.626 13.8646 127.032 14.0418L119.439 16.308C118.29 16.6509 117.596 17.8933 118.219 18.9187C119.562 21.1299 121.689 21.7923 123.879 21.139C125.772 20.5739 127.322 19.1347 128.049 17.4192C128.173 17.1252 128.496 16.9545 128.8 17.0511C129.032 17.1248 129.194 17.3368 129.191 17.5804C129.151 20.7927 127.285 23.7615 123.782 24.807ZM117.013 15.1956L122.735 13.4877C123.348 13.3049 123.681 12.6252 123.343 12.0821C122.393 10.5573 121.019 9.9186 119.547 10.358C117.644 10.926 116.73 12.7631 117.013 15.1956Z" fill="white"/>
<path d="M29.4704 24.807C25.1337 26.1013 21.1374 23.5188 19.7329 18.8024C18.2541 13.8361 20.479 9.32886 24.7845 8.04388C28.5397 6.92315 31.6762 8.82934 33.3908 12.6569C33.6443 13.2229 33.3147 13.8646 32.7209 14.0418L25.1278 16.308C23.9791 16.6509 23.2851 17.8933 23.9078 18.9187C25.2506 21.1299 27.378 21.7923 29.5672 21.139C31.4607 20.5739 33.0103 19.1347 33.7375 17.4192C33.8621 17.1252 34.1844 16.9545 34.4884 17.0511C34.7204 17.1248 34.8829 17.3368 34.8799 17.5804C34.84 20.7927 32.9735 23.7615 29.4704 24.807ZM22.7016 15.1956L28.4239 13.4877C29.0364 13.3049 29.3693 12.6252 29.0312 12.0821C28.082 10.5573 26.7079 9.9186 25.2358 10.358C23.3326 10.926 22.4189 12.7631 22.7016 15.1956Z" fill="white"/>
<path d="M0.64624 24.0075C0.64624 23.5335 1.00772 23.1552 1.47051 23.0551C2.2558 22.8854 2.76239 22.5114 2.76239 21.3485V3.06375L1.38145 2.60291C1.0396 2.48883 0.809021 2.16856 0.809021 1.80781C0.809021 1.41739 1.0783 1.07868 1.45833 0.991077L5.15665 0.138526C5.55597 0.0464716 5.96443 0 6.37421 0H6.40869V11.375C7.77605 9.28902 9.98987 7.92011 12.2363 7.92011C15.1012 7.92011 16.9895 10.1364 16.9895 13.1676V21.3485C16.9895 22.5172 17.4822 22.8891 18.2797 23.0577C18.7433 23.1556 19.1056 23.5343 19.1056 24.0087C19.1056 24.5195 18.6919 24.9337 18.1816 24.9337H12.1184C11.6081 24.9337 11.1945 24.5195 11.1945 24.0087C11.1945 23.5343 11.5566 23.155 12.0205 23.0586C12.8296 22.8905 13.3432 22.5194 13.3432 21.3485V14.178C13.3432 12.4505 12.3665 11.4076 10.7061 11.4076C9.30619 11.4076 7.64583 12.2224 6.40869 13.5913V21.3485C6.40869 22.5114 6.91529 22.8854 7.70057 23.0551C8.16337 23.1552 8.52484 23.5335 8.52484 24.0075C8.52484 24.519 8.11064 24.9337 7.59969 24.9337H1.57139C1.06045 24.9337 0.64624 24.519 0.64624 24.0075Z" stroke="white" stroke-width="0.311986" mask="url(#path-1-outside-1_1822_23307)"/>
<path d="M40.7852 25.3248C38.0504 25.3248 36.0971 23.5974 36.0971 20.9899C36.0971 18.6758 37.5947 17.2743 40.8828 16.2639L45.9942 14.6669V13.3306C45.9942 11.4728 44.9198 10.2668 43.1943 10.2668C41.5014 10.2668 40.3294 11.4076 40.2968 13.2328C40.2786 13.706 39.8902 14.0802 39.4172 14.0802H37.1714C36.8478 14.0802 36.5854 13.8175 36.5854 13.4935C36.5854 10.2668 39.548 7.92011 43.3246 7.92011C47.036 7.92011 49.6405 10.0713 49.6405 13.0372V20.8596C49.6405 21.9677 50.0637 22.5544 50.9101 22.5544C51.268 22.5544 51.7448 22.6149 51.891 22.942L51.9987 23.1831C52.0788 23.3624 52.0744 23.5706 51.9745 23.7397C51.0621 25.2858 50.0002 25.3248 49.2498 25.3248C47.3615 25.3248 46.2546 24.1189 46.0267 22.4892C44.5617 24.347 42.9013 25.3248 40.7852 25.3248ZM42.6409 22.2611C43.4236 22.2611 44.3203 22.0329 45.1007 21.6457C45.6975 21.3496 45.9942 20.6984 45.9942 20.0316V16.2965L42.8362 17.4047C41.2735 17.9588 40.2317 18.8388 40.2317 20.2077C40.2317 21.4788 41.1107 22.2611 42.6409 22.2611Z" stroke="white" stroke-width="0.311986" mask="url(#path-1-outside-1_1822_23307)"/>
<path d="M53.1753 24.0075C53.1753 23.5335 53.5367 23.1552 53.9995 23.0551C54.7848 22.8854 55.2914 22.5114 55.2914 21.3485V3.06375L53.9109 2.60306C53.5688 2.48889 53.338 2.16837 53.338 1.80734C53.338 1.41707 53.6069 1.07837 53.9867 0.990242L58.254 0H58.9377V21.3485C58.9377 22.5114 59.4443 22.8854 60.2296 23.0551C60.6924 23.1552 61.0539 23.5335 61.0539 24.0075C61.0539 24.519 60.6397 24.9337 60.1287 24.9337H54.1004C53.5895 24.9337 53.1753 24.519 53.1753 24.0075Z" stroke="white" stroke-width="0.311986" mask="url(#path-1-outside-1_1822_23307)"/>
<path d="M68.3569 25.3248C65.6873 25.3248 64.1571 23.4344 64.1571 20.827V10.9839H62.1454C61.5483 10.9839 61.0643 10.4993 61.0643 9.90154C61.0643 9.4703 61.3221 9.08308 61.7104 8.89631C63.8613 7.86162 65.1441 6.66245 66.3053 4.59294C66.4494 4.3363 66.7179 4.17191 67.0119 4.17191C67.449 4.17191 67.8034 4.52669 67.8034 4.96434V8.60457L71.5367 8.38032C72.1604 8.34285 72.6869 8.8392 72.6869 9.46481V9.89743C72.6869 10.4974 72.201 10.9839 71.6017 10.9839H67.8034V19.947C67.8034 21.4136 68.6824 22.3914 70.2777 22.3914C70.7697 22.3914 71.3263 22.301 71.8255 22.1363C72.2619 21.9923 72.784 22.1579 72.9623 22.5818C73.0726 22.8442 73.026 23.1492 72.8255 23.3511C71.5013 24.6841 69.8317 25.3248 68.3569 25.3248Z" stroke="white" stroke-width="0.311986" mask="url(#path-1-outside-1_1822_23307)"/>
<path d="M74.1669 24.0075C74.1669 23.5335 74.5284 23.1552 74.9912 23.0551C75.7765 22.8854 76.283 22.5114 76.283 21.3485V3.06375L74.9021 2.60291C74.5603 2.48883 74.3297 2.16856 74.3297 1.80781C74.3297 1.41739 74.599 1.07868 74.979 0.991076L79.2782 0H79.9293V11.375C81.2967 9.28902 83.5105 7.92011 85.7569 7.92011C88.6219 7.92011 90.5101 10.1364 90.5101 13.1676V21.3485C90.5101 22.5172 91.0029 22.8891 91.8004 23.0577C92.2639 23.1556 92.6263 23.5343 92.6263 24.0087C92.6263 24.5195 92.2126 24.9337 91.7023 24.9337H85.6391C85.1288 24.9337 84.7151 24.5195 84.7151 24.0087C84.7151 23.5343 85.0773 23.155 85.5412 23.0586C86.3502 22.8905 86.8638 22.5194 86.8638 21.3485V14.178C86.8638 12.4505 85.8871 11.4076 84.2268 11.4076C82.8268 11.4076 81.1665 12.2224 79.9293 13.5913V21.3485C79.9293 22.5114 80.4359 22.8854 81.2212 23.0551C81.684 23.1552 82.0455 23.5335 82.0455 24.0075C82.0455 24.519 81.6313 24.9337 81.1203 24.9337H75.0921C74.5811 24.9337 74.1669 24.519 74.1669 24.0075Z" stroke="white" stroke-width="0.311986" mask="url(#path-1-outside-1_1822_23307)"/>
<path d="M93.9224 24.0155C93.9224 23.5392 94.2881 23.1528 94.7584 23.0813C95.7937 22.9241 96.4618 22.5752 96.4618 21.3485V10.9839H94.6632C94.0743 10.9839 93.5968 10.5059 93.5968 9.91625C93.5968 9.37327 94.0039 8.91678 94.5428 8.85547L96.4618 8.63716V7.88752C96.4618 4.07413 99.164 1.4015 103.071 1.4015C103.334 1.4015 103.548 1.61552 103.548 1.87954V4.29142C103.548 4.89144 103.062 5.37786 102.463 5.37786H102.094C100.303 5.37786 99.2291 6.29046 99.2291 7.82233V8.31123H102.441C103.041 8.31123 103.526 8.79764 103.526 9.39766V9.89743C103.526 10.4974 103.041 10.9839 102.441 10.9839H100.108V21.3485C100.108 22.5752 100.776 22.9241 101.811 23.0813C102.282 23.1528 102.647 23.5392 102.647 24.0155C102.647 24.5226 102.237 24.9337 101.73 24.9337H94.8396C94.333 24.9337 93.9224 24.5226 93.9224 24.0155Z" stroke="white" stroke-width="0.311986" mask="url(#path-1-outside-1_1822_23307)"/>
<path d="M105.001 24.0075C105.001 23.5335 105.362 23.1552 105.825 23.0551C106.61 22.8854 107.117 22.5114 107.117 21.3485V3.06375L105.736 2.60306C105.394 2.48889 105.163 2.16837 105.163 1.80734C105.163 1.41707 105.432 1.07837 105.812 0.990242L109.898 0.0420886C110.019 0.0141207 110.142 0 110.266 0H110.763V21.3485C110.763 22.5114 111.27 22.8854 112.055 23.0551C112.518 23.1552 112.879 23.5335 112.879 24.0075C112.879 24.519 112.465 24.9337 111.954 24.9337H105.926C105.415 24.9337 105.001 24.519 105.001 24.0075Z" stroke="white" stroke-width="0.311986" mask="url(#path-1-outside-1_1822_23307)"/>
<path d="M138.852 23.9933C138.852 23.5235 139.209 23.1513 139.646 22.9811C140.273 22.7371 140.669 22.2613 139.991 21.3485L137.289 17.698L134.424 21.707C133.845 22.5141 133.909 22.9113 134.677 23.0799C135.146 23.1831 135.531 23.5535 135.531 24.035C135.531 24.5313 135.129 24.9337 134.634 24.9337H130.088C129.588 24.9337 129.183 24.5278 129.183 24.027C129.183 23.5476 129.562 23.1647 130.021 23.0273C130.733 22.8139 131.346 22.3804 131.82 21.7396L135.922 16.2639L132.471 11.8965C131.728 10.9432 131.134 10.4709 130.488 10.243C130.04 10.0851 129.671 9.70879 129.671 9.23372C129.671 8.72424 130.084 8.31123 130.593 8.31123H136.938C137.456 8.31123 137.875 8.73138 137.875 9.24965C137.875 9.71999 137.504 10.0751 137.091 10.2986C136.6 10.5638 136.436 11.056 137.094 11.8965L139.047 14.4713L141.229 11.6357C141.788 10.941 141.84 10.4928 141.437 10.2594C141.021 10.0192 140.61 9.69568 140.61 9.21567C140.61 8.71616 141.015 8.31123 141.513 8.31123H145.717C146.223 8.31123 146.633 8.72161 146.633 9.22785C146.633 9.70457 146.263 10.0903 145.806 10.223C144.986 10.4609 144.277 10.9459 143.735 11.6357L140.35 15.8402L144.452 21.3485C145.138 22.2559 145.51 22.7573 146.207 23.0055C146.654 23.1645 147.024 23.5351 147.024 24.0098C147.024 24.52 146.61 24.9337 146.101 24.9337H139.791C139.273 24.9337 138.852 24.5127 138.852 23.9933Z" stroke="white" stroke-width="0.311986" mask="url(#path-1-outside-1_1822_23307)"/>
<path d="M123.782 24.807C119.445 26.1013 115.449 23.5188 114.044 18.8024C112.565 13.8361 114.79 9.32886 119.096 8.04388C122.851 6.92315 125.988 8.82934 127.702 12.6569C127.956 13.2229 127.626 13.8646 127.032 14.0418L119.439 16.308C118.29 16.6509 117.596 17.8933 118.219 18.9187C119.562 21.1299 121.689 21.7923 123.879 21.139C125.772 20.5739 127.322 19.1347 128.049 17.4192C128.173 17.1252 128.496 16.9545 128.8 17.0511C129.032 17.1248 129.194 17.3368 129.191 17.5804C129.151 20.7927 127.285 23.7615 123.782 24.807ZM117.013 15.1956L122.735 13.4877C123.348 13.3049 123.681 12.6252 123.343 12.0821C122.393 10.5573 121.019 9.9186 119.547 10.358C117.644 10.926 116.73 12.7631 117.013 15.1956Z" stroke="white" stroke-width="0.311986" mask="url(#path-1-outside-1_1822_23307)"/>
<path d="M29.4704 24.807C25.1337 26.1013 21.1374 23.5188 19.7329 18.8024C18.2541 13.8361 20.479 9.32886 24.7845 8.04388C28.5397 6.92315 31.6762 8.82934 33.3908 12.6569C33.6443 13.2229 33.3147 13.8646 32.7209 14.0418L25.1278 16.308C23.9791 16.6509 23.2851 17.8933 23.9078 18.9187C25.2506 21.1299 27.378 21.7923 29.5672 21.139C31.4607 20.5739 33.0103 19.1347 33.7375 17.4192C33.8621 17.1252 34.1844 16.9545 34.4884 17.0511C34.7204 17.1248 34.8829 17.3368 34.8799 17.5804C34.84 20.7927 32.9735 23.7615 29.4704 24.807ZM22.7016 15.1956L28.4239 13.4877C29.0364 13.3049 29.3693 12.6252 29.0312 12.0821C28.082 10.5573 26.7079 9.9186 25.2358 10.358C23.3326 10.926 22.4189 12.7631 22.7016 15.1956Z" stroke="white" stroke-width="0.311986" mask="url(#path-1-outside-1_1822_23307)"/>
<path d="M119.728 33.5567C118.97 33.5567 118.222 33.7269 117.537 34.0551C116.852 34.3832 116.247 34.8612 115.766 35.4545C115.286 36.0479 114.941 36.7418 114.757 37.4864C114.573 38.2309 114.554 39.0076 114.702 39.7604C114.899 40.7674 115.388 41.6923 116.104 42.4183C116.821 43.1442 117.734 43.6386 118.728 43.8389C119.722 44.0392 120.752 43.9364 121.689 43.5435C122.625 43.1507 123.426 42.4853 123.989 41.6316C124.552 40.778 124.852 39.7744 124.852 38.7477C124.851 37.3714 124.31 36.0519 123.35 35.0788C122.389 34.1056 121.086 33.5582 119.728 33.5567ZM119.728 42.645C118.967 42.645 118.223 42.4164 117.59 41.9882C116.958 41.5599 116.464 40.9513 116.173 40.2391C115.882 39.527 115.806 38.7434 115.954 37.9873C116.103 37.2313 116.469 36.5369 117.007 35.9919C117.545 35.4468 118.231 35.0756 118.977 34.9252C119.535 34.8128 120.111 34.8271 120.663 34.9671C121.214 35.1072 121.729 35.3694 122.169 35.735C122.608 36.1006 122.963 36.5604 123.206 37.0813C123.449 37.6023 123.575 38.1714 123.575 38.7477C123.574 39.781 123.168 40.7717 122.447 41.5023C121.726 42.2329 120.748 42.6439 119.728 42.645ZM131.11 33.5567C130.096 33.5567 129.106 33.8611 128.263 34.4315C127.42 35.0019 126.763 35.8126 126.375 36.7611C125.988 37.7097 125.886 38.7534 126.084 39.7604C126.281 40.7674 126.769 41.6924 127.486 42.4183C128.203 43.1443 129.116 43.6387 130.11 43.8389C131.104 44.0392 132.135 43.9364 133.071 43.5435C134.007 43.1507 134.808 42.4853 135.371 41.6316C135.934 40.778 136.234 39.7744 136.234 38.7477C136.233 37.3714 135.692 36.0519 134.732 35.0788C133.771 34.1056 132.468 33.5582 131.11 33.5567ZM131.11 42.645C130.349 42.645 129.605 42.4164 128.972 41.9882C128.34 41.5599 127.846 40.9513 127.555 40.2391C127.264 39.527 127.188 38.7434 127.336 37.9873C127.485 37.2313 127.851 36.5369 128.389 35.9919C128.927 35.4468 129.613 35.0756 130.359 34.9252C131.106 34.7748 131.879 34.852 132.582 35.147C133.285 35.442 133.886 35.9415 134.309 36.5824C134.732 37.2234 134.957 37.9769 134.957 38.7477C134.956 39.7809 134.55 40.7715 133.829 41.5021C133.108 42.2328 132.13 42.6438 131.11 42.645ZM148.96 40.0984L148.505 39.8802C148.205 39.7453 147.904 39.6115 147.594 39.494C147.554 39.4783 147.513 39.4643 147.472 39.4486C147.482 39.3619 147.489 39.2741 147.495 39.188C147.509 39.0135 147.51 38.839 147.513 38.6598C147.51 38.4735 147.497 38.2873 147.473 38.1026C147.376 37.381 147.137 36.6866 146.769 36.0608C146.404 35.4304 145.91 34.8857 145.321 34.4629C144.728 34.0433 144.049 33.7631 143.335 33.6428C142.636 33.5252 141.922 33.5416 141.23 33.691C140.524 33.8421 139.866 34.1647 139.311 34.6311C139.223 34.7038 139.138 34.7805 139.06 34.8597V33.8481H137.787V48H139.059V36.3401C139.141 36.229 139.227 36.1219 139.318 36.0207C139.506 35.8105 139.716 35.6202 139.943 35.453C140.392 35.1266 140.908 34.9078 141.452 34.8131C142.006 34.7166 142.573 34.7194 143.126 34.8213C143.667 34.9167 144.179 35.1336 144.626 35.4559C145.508 36.0957 146.109 37.1672 146.243 38.2602C146.259 38.3938 146.267 38.5282 146.268 38.6627C146.264 38.7913 146.261 38.9222 146.251 39.0507C146.061 38.9995 145.869 38.9518 145.674 38.9111C145.009 38.775 144.313 38.6988 143.589 38.7704C143.215 38.8058 142.849 38.8915 142.498 39.0251C142.12 39.1688 141.774 39.3863 141.48 39.665C141.168 39.9624 140.936 40.3345 140.804 40.7469C140.672 41.1663 140.652 41.6138 140.747 42.0435C140.844 42.4752 141.055 42.8719 141.358 43.1912C141.658 43.5047 142.034 43.7328 142.449 43.8526C143.253 44.0789 144.062 43.9515 144.749 43.6333C145.427 43.3156 146.013 42.8274 146.452 42.2151C146.776 41.7657 147.028 41.2675 147.199 40.7388C147.46 40.8394 147.72 40.9499 147.978 41.0634L148.385 41.2524L148.624 41.3734L149.354 40.3078L148.96 40.0984ZM145.427 41.4432C145.113 41.8726 144.699 42.2161 144.222 42.4431C143.762 42.6601 143.238 42.716 142.815 42.5932C142.619 42.5402 142.441 42.4341 142.301 42.2861C142.16 42.1382 142.062 41.9541 142.017 41.7538C141.974 41.5499 141.985 41.3383 142.049 41.14C142.112 40.9418 142.226 40.7639 142.379 40.6242C142.695 40.3188 143.188 40.1414 143.724 40.085C144.259 40.0286 144.842 40.085 145.417 40.2013C145.612 40.2409 145.807 40.2903 146.001 40.3432C145.867 40.7379 145.674 41.109 145.427 41.4432ZM112.832 41.5642V29.8833H111.568V41.9824C111.568 42.9713 112.238 43.6874 112.91 44.0306L113.758 43.0295C113.219 42.7258 112.832 42.3792 112.832 41.5642Z" fill="#BCDD33"/>
<path d="M91.3757 44.0627C90.8368 44.0627 90.3364 43.9665 89.8745 43.774C89.4126 43.5816 89.0148 43.3121 88.6812 42.9657C88.3476 42.6192 88.0974 42.2279 87.9306 41.7916L88.1423 41.5222L88.0075 43.8703H86.6603V29.8201H88.2V36.4217L88.0075 36.133C88.2642 35.53 88.694 35.036 89.2971 34.651C89.913 34.2533 90.6123 34.0544 91.395 34.0544C92.1905 34.0544 92.9219 34.2533 93.5891 34.651C94.2564 35.0488 94.7889 35.6198 95.1866 36.364C95.5844 37.1082 95.7833 38.0064 95.7833 39.0586C95.7833 40.0979 95.578 40.9961 95.1674 41.7531C94.7696 42.4973 94.2371 43.0683 93.5699 43.4661C92.9027 43.8639 92.1713 44.0627 91.3757 44.0627ZM91.2218 42.7155C92.1713 42.7155 92.9091 42.3818 93.4352 41.7146C93.9741 41.0474 94.2435 40.162 94.2435 39.0586C94.2435 37.9551 93.9805 37.0697 93.4544 36.4025C92.9283 35.7353 92.1905 35.4017 91.241 35.4017C90.6379 35.4017 90.1055 35.5556 89.6435 35.8636C89.1944 36.1715 88.8416 36.6014 88.5849 37.1531C88.3283 37.7049 88.2 38.3528 88.2 39.0971C88.2 39.8284 88.3219 40.47 88.5657 41.0217C88.8223 41.5606 89.1752 41.9777 89.6243 42.2728C90.0862 42.5679 90.6187 42.7155 91.2218 42.7155ZM106.356 34.2468L101.833 45.487C101.589 46.1157 101.319 46.6097 101.024 46.969C100.742 47.3411 100.421 47.6042 100.062 47.7581C99.7155 47.9249 99.3113 48.0083 98.8494 48.0083C98.4131 48.0083 98.0089 47.9442 97.6368 47.8159C97.2776 47.7004 96.9568 47.54 96.6745 47.3347L97.0979 45.9874C97.3545 46.2184 97.624 46.3852 97.9063 46.4878C98.2014 46.6033 98.4901 46.6611 98.7724 46.6611C99.106 46.6611 99.4204 46.5584 99.7155 46.3531C100.011 46.1478 100.28 45.7308 100.524 45.1021L101.024 43.851L100.062 41.5606L97.0017 34.2468H98.7532L101.159 40.5213L101.756 42.2343L102.449 40.3288L104.7 34.2468H106.356Z" fill="white" fill-opacity="0.64"/>
</svg>
