<svg width="150" height="28" viewBox="0 0 150 28" fill="none" xmlns="http://www.w3.org/2000/svg">
<g clip-path="url(#clip0_2070_23766)">
<path d="M16.1011 1.685C16.1386 1.685 16.176 1.685 16.206 1.685C16.6331 1.7375 16.7979 1.7075 17.5022 2.6825C18.214 3.665 20.4992 8.4425 20.9263 9.275C21.3534 10.1075 23.9458 15.905 24.2754 17.2175C24.5751 18.4175 25.227 19.6175 23.4663 20.69C21.5482 21.8525 19.0607 22.7375 18.1541 23.0525C17.24 23.3675 15.7115 23.96 14.8349 24.17C14.3629 24.2825 14.0781 24.395 13.6361 24.395C13.254 24.395 12.752 24.3125 11.9053 24.065C10.0846 23.5325 8.25647 22.955 7.18504 22.5575C6.11361 22.16 4.218 21.4475 3.3264 20.7875C2.47225 20.1575 1.9253 20.12 2.09013 17.975C2.26246 15.7625 2.69702 14.4425 3.16905 12.935C3.64108 11.4275 4.5177 8.72 5.07964 7.7375C5.64158 6.755 6.0237 6.065 7.80691 5.0375C9.59013 4.01 10.8114 3.425 11.8454 2.945C12.8344 2.4875 15.2919 1.685 16.1011 1.685ZM16.1011 0.5C14.9398 0.5 12.2125 1.4675 11.3509 1.865C10.257 2.375 8.99822 2.9825 7.21501 4.0025C5.17704 5.1725 4.66755 6.065 4.07565 7.1L4.05317 7.1375C3.58863 7.9475 2.91431 9.77 2.03768 12.5675L1.97774 12.77C1.5207 14.24 1.07864 15.6275 0.913807 17.8775C0.748972 20.045 1.24348 20.7875 2.35237 21.5375C2.44977 21.605 2.53968 21.665 2.62959 21.7325C3.58863 22.4375 5.27445 23.0975 6.78044 23.66C8.13658 24.17 10.3694 24.8375 11.5831 25.1975C12.4972 25.4675 13.1116 25.58 13.6511 25.58C14.1381 25.58 14.4902 25.49 14.8274 25.4C14.9173 25.3775 15.0147 25.3475 15.1196 25.325C15.8089 25.16 16.7829 24.8075 17.6521 24.5C17.9817 24.38 18.2964 24.2675 18.5512 24.1775C19.8099 23.75 22.2075 22.8575 24.0956 21.71C26.4033 20.3075 25.8564 18.3875 25.5567 17.36C25.5117 17.21 25.4742 17.0675 25.4368 16.9325C25.0622 15.44 22.3798 9.4925 21.9902 8.7425C21.9003 8.57 21.728 8.21 21.5032 7.7525C20.2819 5.27 19.0457 2.78 18.4762 1.9925C17.7195 0.9425 17.2774 0.62 16.4308 0.5225H16.3709C16.2809 0.5 16.1985 0.5 16.1011 0.5Z" fill="#002920"/>
<path d="M9.3329 3.10223C10.779 3.10223 11.8654 3.29723 13.0567 3.49223C14.5851 3.73973 17.3274 4.21973 18.3614 4.63973C19.3953 5.05973 20.1221 5.33723 21.3659 6.96473C22.6171 8.59223 23.3589 9.73223 23.9733 10.6922C24.5876 11.6597 25.8239 14.1722 25.8164 14.8697C25.8164 15.3047 25.8764 15.4697 25.0372 16.3097C24.1905 17.1647 19.8973 20.1497 19.1556 20.6972C18.4138 21.2447 13.184 24.6872 11.9628 25.2122C11.3409 25.4747 10.7265 25.8572 10.0896 25.8572C9.58764 25.8572 9.05567 25.6247 8.49374 24.9197C7.08514 23.1722 5.87136 20.8172 5.43679 19.9622C5.00223 19.0922 4.20053 17.6522 3.87086 16.8122C3.54119 15.9722 3.30143 15.7697 3.54868 13.8722C3.80343 11.9747 4.08814 10.0622 4.32041 8.93723C4.55268 7.80473 4.96476 5.80973 5.47425 4.81973C5.96127 3.87473 5.91631 3.31973 8.01421 3.16973C8.48624 3.13223 8.92081 3.11723 9.3254 3.11723M9.3254 1.96973C8.87585 1.96973 8.41881 1.98473 7.9318 2.02223C5.81142 2.17223 5.16706 2.77973 4.60512 3.97973C4.56017 4.08473 4.50772 4.18973 4.45527 4.28723C3.91581 5.33723 3.51871 7.11473 3.19653 8.69723C2.90432 10.1297 2.58215 12.4547 2.40982 13.7147C2.17755 15.4697 2.31991 16.0772 2.68704 16.9397C2.7245 17.0297 2.76197 17.1197 2.79943 17.2247C3.05417 17.8847 3.54119 18.8072 3.96826 19.6247C4.1331 19.9397 4.29044 20.2397 4.41032 20.4797C5.00972 21.6722 6.21601 23.9297 7.59463 25.6472C8.32141 26.5547 9.16057 27.0122 10.0896 27.0122C10.8389 27.0122 11.4683 26.7197 12.0227 26.4572C12.1576 26.3897 12.2924 26.3297 12.4123 26.2772C13.7984 25.6847 19.1631 22.1297 19.8374 21.6347C19.9872 21.5222 20.3094 21.2897 20.7215 20.9972C22.9468 19.4147 25.1721 17.8097 25.8539 17.1272C26.723 16.2497 26.9628 15.7847 26.9628 14.9672V14.8922C26.9778 13.7147 25.3519 10.7372 24.9398 10.0847C24.2879 9.06473 23.5162 7.89473 22.2725 6.27473C20.8489 4.42223 19.9123 4.03973 18.8259 3.60473L18.7809 3.58973C17.9343 3.24473 16.0687 2.83973 13.229 2.37473L13.0267 2.34473C11.8729 2.15723 10.779 1.97723 9.31791 1.97723L9.3254 1.96973Z" fill="#002920"/>
<path d="M16.819 3.57461C17.9129 3.57461 19.2616 3.61211 20.0708 3.83711C21.0823 4.11461 21.5918 3.94961 22.2211 6.00461C22.873 8.12711 22.9479 9.51461 23.0678 11.0896C23.1877 12.6646 23.3675 15.5071 23.2101 16.6246C23.0528 17.7421 22.9554 18.5221 21.7041 20.1196C20.4529 21.7171 19.5463 22.7071 18.7746 23.5246C18.0028 24.3421 15.6727 26.1496 15.2456 26.2696C15.1032 26.3071 14.9909 26.3446 14.8635 26.3446C14.6312 26.3446 14.3465 26.2246 13.7021 25.8046C12.6982 25.1446 8.86948 21.5221 8.17268 20.8996C7.48337 20.2771 3.00285 15.8146 2.22363 14.7121C1.51184 13.6996 0.477872 12.8146 1.69915 11.1871C3.02532 9.40961 4.98087 7.68461 5.69266 7.06961C6.41194 6.44711 7.59575 5.33711 8.32253 4.82711C9.0493 4.31711 9.17667 4.03211 11.0348 3.86711C12.893 3.70961 14.7661 3.58211 15.8975 3.56711C16.1597 3.56711 16.4744 3.56711 16.8115 3.56711M16.8115 2.41961C16.4669 2.41961 16.1522 2.41961 15.8825 2.41961C14.4589 2.43461 12.1737 2.62211 10.9374 2.72711C9.19915 2.87711 8.6522 3.15461 7.90295 3.71711C7.82802 3.76961 7.7531 3.82961 7.66319 3.88961C7.09376 4.28711 6.32952 4.96961 5.6552 5.57711C5.39296 5.80961 5.1532 6.02711 4.9509 6.19961C3.9544 7.05461 2.09625 8.75711 0.785065 10.4971C-0.795854 12.6121 0.3505 14.1121 1.02483 15.0196C1.11474 15.1396 1.20465 15.2596 1.28706 15.3721C2.17118 16.6246 6.77907 21.1921 7.40844 21.7546C7.5508 21.8821 7.84301 22.1521 8.21763 22.4971C10.2331 24.3646 12.2711 26.2396 13.0728 26.7646C13.7696 27.2221 14.2866 27.4921 14.8635 27.4921C15.1407 27.4921 15.358 27.4321 15.5228 27.3871H15.5603C16.3845 27.1471 18.9469 25.0246 19.6137 24.3121C20.4304 23.4421 21.3595 22.4221 22.6107 20.8246C24.0418 19.0021 24.1842 17.9971 24.3415 16.8196V16.7746C24.4764 15.8596 24.4314 13.9171 24.2066 10.9996L24.1917 10.7896C24.0793 9.25961 23.9669 7.81211 23.315 5.65961C22.6857 3.60461 21.9664 3.10211 20.7002 2.80211C20.5878 2.77961 20.4829 2.74961 20.3705 2.71961C19.6212 2.50961 18.4899 2.41211 16.8115 2.41211V2.41961Z" fill="#002920"/>
<path d="M42.3708 18.5307H37.0886V6.83824C37.0886 6.62074 36.9088 6.44824 36.699 6.44824H34.3388C34.1215 6.44824 33.9492 6.62824 33.9492 6.83824V21.1632C33.9492 21.3807 34.129 21.5532 34.3388 21.5532H42.3783C42.5956 21.5532 42.7679 21.3732 42.7679 21.1632V18.9282C42.7679 18.7107 42.5881 18.5382 42.3783 18.5382L42.3708 18.5307Z" fill="#002920"/>
<path d="M50.4994 6.44043H48.1318C47.9166 6.44043 47.7422 6.61504 47.7422 6.83043V21.1629C47.7422 21.3783 47.9166 21.5529 48.1318 21.5529H50.4994C50.7146 21.5529 50.889 21.3783 50.889 21.1629V6.83043C50.889 6.61504 50.7146 6.44043 50.4994 6.44043Z" fill="#002920"/>
<path d="M69.208 6.44043H66.6006C66.4282 6.44043 66.2784 6.55293 66.2259 6.71793L62.7794 17.6454L59.3104 6.71793C59.2579 6.55293 59.1081 6.44043 58.9357 6.44043H56.3508C56.2234 6.44043 56.1036 6.50043 56.0286 6.60543C55.9537 6.71043 55.9312 6.83793 55.9762 6.95793L60.7789 21.2829C60.8313 21.4404 60.9812 21.5529 61.1535 21.5529H64.3753C64.5401 21.5529 64.69 21.4479 64.7499 21.2829L69.5751 6.95793C69.6126 6.83793 69.5976 6.71043 69.5226 6.60543C69.4477 6.50043 69.3353 6.44043 69.2005 6.44043H69.208Z" fill="#002920"/>
<path d="M79.8772 12.6807C77.592 11.9907 77.2098 11.5332 77.2098 10.7607C77.2098 9.94324 77.9141 9.41824 79.0006 9.41824C80.1619 9.41824 80.9711 9.91324 81.5405 10.9707C81.5855 11.0607 81.6679 11.1282 81.7728 11.1507C81.8702 11.1807 81.9751 11.1657 82.065 11.1132L83.9756 10.0107C84.1479 9.90574 84.2153 9.68074 84.1254 9.50824C83.084 7.53574 81.2633 6.44824 79.0006 6.44824C76.5955 6.44824 74.1604 7.95574 74.1604 10.8432C74.1604 12.4707 74.6999 14.1282 78.581 15.2532C80.8212 15.8982 81.6154 16.3032 81.6154 17.2557C81.6154 18.2082 80.8362 18.6807 79.4126 18.6807C77.8992 18.6807 76.8877 18.0657 76.3032 16.8132C76.2583 16.7157 76.1759 16.6482 76.0785 16.6182C75.9736 16.5882 75.8612 16.5957 75.7713 16.6557L73.8157 17.8032C73.6509 17.9007 73.5835 18.1032 73.6509 18.2757C74.5575 20.4732 76.573 21.6882 79.3227 21.6882C82.567 21.6882 84.6574 19.9407 84.6574 17.2332C84.6574 14.2107 82.1174 13.4082 79.8622 12.7032L79.8772 12.6807Z" fill="#002920"/>
<path d="M95.6412 6.44043H90.374C90.1567 6.44043 89.9844 6.62043 89.9844 6.83043V21.1554C89.9844 21.3729 90.1642 21.5454 90.374 21.5454H92.7341C92.9514 21.5454 93.1237 21.3654 93.1237 21.1554V16.6554H95.6337C98.5408 16.6554 100.826 14.4129 100.826 11.5479C100.826 8.68293 98.5483 6.44043 95.6337 6.44043H95.6412ZM97.7017 11.5479C97.7017 12.7704 96.8175 13.7004 95.6412 13.7004H93.1312V9.40293H95.6412C96.8325 9.40293 97.7017 10.3104 97.7017 11.5554V11.5479Z" fill="#002920"/>
<path d="M112.366 6.71074C112.314 6.55324 112.164 6.44824 111.999 6.44824H108.77C108.605 6.44824 108.455 6.55324 108.403 6.71074L103.39 21.0357C103.345 21.1557 103.368 21.2907 103.443 21.3957C103.518 21.5007 103.638 21.5607 103.765 21.5607H106.327C106.5 21.5607 106.649 21.4557 106.702 21.2907L107.489 18.8757H113.28L114.082 21.2907C114.135 21.4482 114.284 21.5607 114.457 21.5607H117.034C117.161 21.5607 117.281 21.5007 117.356 21.3957C117.431 21.2907 117.446 21.1557 117.409 21.0357L112.381 6.71074H112.366ZM112.284 15.9207H108.5L110.396 10.2807L112.291 15.9207H112.284Z" fill="#002920"/>
<path d="M128.983 9.41824C130.474 9.41824 131.793 10.0857 132.512 11.2107C132.617 11.3757 132.842 11.4282 133.022 11.3307L134.985 10.1907C135.075 10.1382 135.142 10.0482 135.165 9.94324C135.187 9.83824 135.165 9.74074 135.112 9.65074C133.786 7.64074 131.493 6.44824 128.976 6.44824C124.638 6.44824 121.371 9.71824 121.371 14.0607C121.371 18.4032 124.638 21.6732 128.976 21.6732C131.516 21.6732 133.809 20.4732 135.112 18.4632C135.165 18.3807 135.187 18.2757 135.165 18.1707C135.142 18.0657 135.075 17.9832 134.985 17.9232L133.014 16.7832C132.835 16.6782 132.617 16.7307 132.505 16.9032C131.793 18.0132 130.474 18.6732 128.976 18.6732C126.241 18.6732 124.406 16.8207 124.406 14.0532C124.406 11.2857 126.241 9.41074 128.976 9.41074L128.983 9.41824Z" fill="#002920"/>
<path d="M149.611 18.5301H143.729V15.4026H148.974C149.191 15.4026 149.364 15.2226 149.364 15.0126V12.8151C149.364 12.5976 149.184 12.4251 148.974 12.4251H143.729V9.47008H149.506C149.723 9.47008 149.896 9.29008 149.896 9.08008V6.84508C149.896 6.62758 149.716 6.45508 149.506 6.45508H140.979C140.762 6.45508 140.59 6.63508 140.59 6.84508V21.1701C140.59 21.3876 140.77 21.5601 140.979 21.5601H149.618C149.836 21.5601 150.008 21.3801 150.008 21.1701V18.9351C150.008 18.7176 149.828 18.5451 149.618 18.5451L149.611 18.5301Z" fill="#002920"/>
</g>
<defs>
<clipPath id="clip0_2070_23766">
<rect width="150" height="27" fill="white" transform="translate(0 0.5)"/>
</clipPath>
</defs>
</svg>
